<?xml version="1.0" encoding="UTF-8" standalone="no"?><svg xmlns="http://www.w3.org/2000/svg" xmlns:xlink="http://www.w3.org/1999/xlink" contentScriptType="application/ecmascript" contentStyleType="text/css" height="591px" preserveAspectRatio="none" style="width:754px;height:591px;background:#FFFFFF;" version="1.1" viewBox="0 0 754 591" width="754px" zoomAndPan="magnify"><defs><filter height="300%" id="f1tymjr36i17mx" width="300%" x="-1" y="-1"><feGaussianBlur result="blurOut" stdDeviation="2.0"/><feColorMatrix in="blurOut" result="blurOut2" type="matrix" values="0 0 0 0 0 0 0 0 0 0 0 0 0 0 0 0 0 0 .4 0"/><feOffset dx="4.0" dy="4.0" in="blurOut2" result="blurOut3"/><feBlend in="SourceGraphic" in2="blurOut3" mode="normal"/></filter></defs><g><!--MD5=[0082b46695ab9a4236ee6e2292a56a91]
class <object>--><rect codeLine="2" fill="#FEFECE" filter="url(#f1tymjr36i17mx)" height="48" id="&lt;object&gt;" style="stroke:#A80036;stroke-width:1.5;" width="78" x="382.5" y="7"/><ellipse cx="397.5" cy="23" fill="#ADD1B2" rx="11" ry="11" style="stroke:#A80036;stroke-width:1.0;"/><path d="M397.5469,29.2031 C399.0469,29.2031 400.2813,28.6406 401.1875,27.5781 L399.8125,26.0625 C399.2656,26.6563 398.6094,27.0469 397.8125,27.0469 C396.1406,27.0469 394.9844,25.7188 394.9844,23.4375 C394.9844,21.2188 396.1406,19.875 397.7031,19.875 C398.5156,19.875 399.1094,20.1875 399.6406,20.6719 L401.0156,19.125 C400.2656,18.3906 399.1094,17.7188 397.7031,17.7188 C394.75,17.7188 392.4219,19.8594 392.4219,23.5313 C392.4219,27.25 394.7969,29.2031 397.5469,29.2031 Z " fill="#000000"/><text fill="#000000" font-family="sans-serif" font-size="12" lengthAdjust="spacing" textLength="46" x="411.5" y="27.1016">&lt;object&gt;</text><line style="stroke:#A80036;stroke-width:1.5;" x1="383.5" x2="459.5" y1="39" y2="39"/><line style="stroke:#A80036;stroke-width:1.5;" x1="383.5" x2="459.5" y1="47" y2="47"/><!--MD5=[b2b917591af49fe4ba5dff5b4a6b4397]
class <sixty-unit>--><rect codeLine="3" fill="#FEFECE" filter="url(#f1tymjr36i17mx)" height="60.8906" id="&lt;sixty-unit&gt;" style="stroke:#A80036;stroke-width:1.5;" width="144" x="273.5" y="115"/><ellipse cx="312.35" cy="131" fill="#A9DCDF" rx="11" ry="11" style="stroke:#A80036;stroke-width:1.0;"/><path d="M311.4906,130.6406 C311.7875,129.5313 312.1,128.25 312.3656,127.0625 L312.4281,127.0625 C312.6938,128.25 313.0219,129.5313 313.3188,130.6406 L313.5688,131.6563 L311.2406,131.6563 L311.4906,130.6406 Z M307.5063,136.25 L310.0531,136.25 L310.7406,133.6094 L314.0844,133.6094 L314.7406,136.25 L317.3969,136.25 L313.9438,125.1719 L310.9594,125.1719 L307.5063,136.25 Z " fill="#000000"/><text fill="#000000" font-family="sans-serif" font-size="12" font-style="italic" lengthAdjust="spacing" textLength="59" x="331.65" y="135.1016">&lt;sixty-unit&gt;</text><line style="stroke:#A80036;stroke-width:1.5;" x1="274.5" x2="416.5" y1="147" y2="147"/><text fill="#000000" font-family="sans-serif" font-size="11" lengthAdjust="spacing" textLength="132" x="279.5" y="161.2051">total-seconds : &lt;integer&gt;</text><line style="stroke:#A80036;stroke-width:1.5;" x1="274.5" x2="416.5" y1="167.8906" y2="167.8906"/><!--MD5=[e34761b0d4991b439be72655a3e62392]
class <position>--><rect codeLine="4" fill="#FEFECE" filter="url(#f1tymjr36i17mx)" height="48" id="&lt;position&gt;" style="stroke:#A80036;stroke-width:1.5;" width="90" x="452.5" y="121.5"/><ellipse cx="467.5" cy="137.5" fill="#ADD1B2" rx="11" ry="11" style="stroke:#A80036;stroke-width:1.0;"/><path d="M467.5469,143.7031 C469.0469,143.7031 470.2813,143.1406 471.1875,142.0781 L469.8125,140.5625 C469.2656,141.1563 468.6094,141.5469 467.8125,141.5469 C466.1406,141.5469 464.9844,140.2188 464.9844,137.9375 C464.9844,135.7188 466.1406,134.375 467.7031,134.375 C468.5156,134.375 469.1094,134.6875 469.6406,135.1719 L471.0156,133.625 C470.2656,132.8906 469.1094,132.2188 467.7031,132.2188 C464.75,132.2188 462.4219,134.3594 462.4219,138.0313 C462.4219,141.75 464.7969,143.7031 467.5469,143.7031 Z " fill="#000000"/><text fill="#000000" font-family="sans-serif" font-size="12" lengthAdjust="spacing" textLength="58" x="481.5" y="141.6016">&lt;position&gt;</text><line style="stroke:#A80036;stroke-width:1.5;" x1="453.5" x2="541.5" y1="153.5" y2="153.5"/><line style="stroke:#A80036;stroke-width:1.5;" x1="453.5" x2="541.5" y1="161.5" y2="161.5"/><!--MD5=[d7496b5426f31d7a637df3ab9e29fecc]
class <time>--><rect codeLine="5" fill="#FEFECE" filter="url(#f1tymjr36i17mx)" height="73.7813" id="&lt;time&gt;" style="stroke:#A80036;stroke-width:1.5;" width="150" x="125.5" y="242.5"/><ellipse cx="177.25" cy="258.5" fill="#ADD1B2" rx="11" ry="11" style="stroke:#A80036;stroke-width:1.0;"/><path d="M177.2969,264.7031 C178.7969,264.7031 180.0313,264.1406 180.9375,263.0781 L179.5625,261.5625 C179.0156,262.1563 178.3594,262.5469 177.5625,262.5469 C175.8906,262.5469 174.7344,261.2188 174.7344,258.9375 C174.7344,256.7188 175.8906,255.375 177.4531,255.375 C178.2656,255.375 178.8594,255.6875 179.3906,256.1719 L180.7656,254.625 C180.0156,253.8906 178.8594,253.2188 177.4531,253.2188 C174.5,253.2188 172.1719,255.3594 172.1719,259.0313 C172.1719,262.75 174.5469,264.7031 177.2969,264.7031 Z " fill="#000000"/><text fill="#000000" font-family="sans-serif" font-size="12" lengthAdjust="spacing" textLength="38" x="197.75" y="262.6016">&lt;time&gt;</text><line style="stroke:#A80036;stroke-width:1.5;" x1="126.5" x2="274.5" y1="274.5" y2="274.5"/><line style="stroke:#A80036;stroke-width:1.5;" x1="126.5" x2="274.5" y1="282.5" y2="282.5"/><text fill="#000000" font-family="sans-serif" font-size="11" lengthAdjust="spacing" textLength="138" x="131.5" y="296.7051">decode-total-seconds(&lt;&gt;)</text><text fill="#000000" font-family="sans-serif" font-size="11" lengthAdjust="spacing" textLength="63" x="131.5" y="309.5957">as(&lt;string&gt;)</text><!--MD5=[77ae869fbe714cad66a7c6ddf5b69c80]
class <time-of-day>--><rect codeLine="6" fill="#FEFECE" filter="url(#f1tymjr36i17mx)" height="48" id="&lt;time-of-day&gt;" style="stroke:#A80036;stroke-width:1.5;" width="107" x="7" y="396"/><ellipse cx="22" cy="412" fill="#ADD1B2" rx="11" ry="11" style="stroke:#A80036;stroke-width:1.0;"/><path d="M22.0469,418.2031 C23.5469,418.2031 24.7813,417.6406 25.6875,416.5781 L24.3125,415.0625 C23.7656,415.6563 23.1094,416.0469 22.3125,416.0469 C20.6406,416.0469 19.4844,414.7188 19.4844,412.4375 C19.4844,410.2188 20.6406,408.875 22.2031,408.875 C23.0156,408.875 23.6094,409.1875 24.1406,409.6719 L25.5156,408.125 C24.7656,407.3906 23.6094,406.7188 22.2031,406.7188 C19.25,406.7188 16.9219,408.8594 16.9219,412.5313 C16.9219,416.25 19.2969,418.2031 22.0469,418.2031 Z " fill="#000000"/><text fill="#000000" font-family="sans-serif" font-size="12" lengthAdjust="spacing" textLength="75" x="36" y="416.1016">&lt;time-of-day&gt;</text><line style="stroke:#A80036;stroke-width:1.5;" x1="8" x2="113" y1="428" y2="428"/><line style="stroke:#A80036;stroke-width:1.5;" x1="8" x2="113" y1="436" y2="436"/><!--MD5=[a3c3d24e6fe02b4bc23145b671fbd87b]
class <time-offset>--><rect codeLine="7" fill="#FEFECE" filter="url(#f1tymjr36i17mx)" height="73.7813" id="&lt;time-offset&gt;" style="stroke:#A80036;stroke-width:1.5;" width="105" x="149" y="383"/><ellipse cx="164" cy="399" fill="#ADD1B2" rx="11" ry="11" style="stroke:#A80036;stroke-width:1.0;"/><path d="M164.0469,405.2031 C165.5469,405.2031 166.7813,404.6406 167.6875,403.5781 L166.3125,402.0625 C165.7656,402.6563 165.1094,403.0469 164.3125,403.0469 C162.6406,403.0469 161.4844,401.7188 161.4844,399.4375 C161.4844,397.2188 162.6406,395.875 164.2031,395.875 C165.0156,395.875 165.6094,396.1875 166.1406,396.6719 L167.5156,395.125 C166.7656,394.3906 165.6094,393.7188 164.2031,393.7188 C161.25,393.7188 158.9219,395.8594 158.9219,399.5313 C158.9219,403.25 161.2969,405.2031 164.0469,405.2031 Z " fill="#000000"/><text fill="#000000" font-family="sans-serif" font-size="12" lengthAdjust="spacing" textLength="73" x="178" y="403.1016">&lt;time-offset&gt;</text><line style="stroke:#A80036;stroke-width:1.5;" x1="150" x2="253" y1="415" y2="415"/><line style="stroke:#A80036;stroke-width:1.5;" x1="150" x2="253" y1="423" y2="423"/><text fill="#000000" font-family="sans-serif" font-size="11" lengthAdjust="spacing" textLength="63" x="155" y="437.2051">as(&lt;string&gt;)</text><text fill="#000000" font-family="sans-serif" font-size="11" lengthAdjust="spacing" textLength="49" x="155" y="450.0957">past?(&lt;&gt;)</text><!--MD5=[969e5e072e5a5f50cb0447b26ed85229]
class <angle>--><rect codeLine="8" fill="#FEFECE" filter="url(#f1tymjr36i17mx)" height="60.8906" id="&lt;angle&gt;" style="stroke:#A80036;stroke-width:1.5;" width="75" x="311" y="249"/><ellipse cx="327.35" cy="265" fill="#A9DCDF" rx="11" ry="11" style="stroke:#A80036;stroke-width:1.0;"/><path d="M326.4906,264.6406 C326.7875,263.5313 327.1,262.25 327.3656,261.0625 L327.4281,261.0625 C327.6938,262.25 328.0219,263.5313 328.3188,264.6406 L328.5688,265.6563 L326.2406,265.6563 L326.4906,264.6406 Z M322.5063,270.25 L325.0531,270.25 L325.7406,267.6094 L329.0844,267.6094 L329.7406,270.25 L332.3969,270.25 L328.9438,259.1719 L325.9594,259.1719 L322.5063,270.25 Z " fill="#000000"/><text fill="#000000" font-family="sans-serif" font-size="12" font-style="italic" lengthAdjust="spacing" textLength="40" x="341.65" y="269.1016">&lt;angle&gt;</text><line style="stroke:#A80036;stroke-width:1.5;" x1="312" x2="385" y1="281" y2="281"/><line style="stroke:#A80036;stroke-width:1.5;" x1="312" x2="385" y1="289" y2="289"/><text fill="#000000" font-family="sans-serif" font-size="11" lengthAdjust="spacing" textLength="63" x="317" y="303.2051">as(&lt;string&gt;)</text><!--MD5=[bf5f47cc84b1456115fe8c3c79067b9d]
class <directed-angle>--><rect codeLine="9" fill="#FEFECE" filter="url(#f1tymjr36i17mx)" height="73.7813" id="&lt;directed-angle&gt;" style="stroke:#A80036;stroke-width:1.5;" width="118" x="289.5" y="383"/><ellipse cx="304.5" cy="399" fill="#A9DCDF" rx="11" ry="11" style="stroke:#A80036;stroke-width:1.0;"/><path d="M303.6406,398.6406 C303.9375,397.5313 304.25,396.25 304.5156,395.0625 L304.5781,395.0625 C304.8438,396.25 305.1719,397.5313 305.4688,398.6406 L305.7188,399.6563 L303.3906,399.6563 L303.6406,398.6406 Z M299.6563,404.25 L302.2031,404.25 L302.8906,401.6094 L306.2344,401.6094 L306.8906,404.25 L309.5469,404.25 L306.0938,393.1719 L303.1094,393.1719 L299.6563,404.25 Z " fill="#000000"/><text fill="#000000" font-family="sans-serif" font-size="12" font-style="italic" lengthAdjust="spacing" textLength="86" x="318.5" y="403.1016">&lt;directed-angle&gt;</text><line style="stroke:#A80036;stroke-width:1.5;" x1="290.5" x2="406.5" y1="415" y2="415"/><text fill="#000000" font-family="sans-serif" font-size="11" lengthAdjust="spacing" textLength="99" x="295.5" y="429.2051">direction : &lt;string&gt;</text><line style="stroke:#A80036;stroke-width:1.5;" x1="290.5" x2="406.5" y1="435.8906" y2="435.8906"/><text fill="#000000" font-family="sans-serif" font-size="11" lengthAdjust="spacing" textLength="63" x="295.5" y="450.0957">as(&lt;string&gt;)</text><!--MD5=[49c666db2c3455425d7a472d5461a439]
class <relative-angle>--><rect codeLine="10" fill="#FEFECE" filter="url(#f1tymjr36i17mx)" height="48" id="&lt;relative-angle&gt;" style="stroke:#A80036;stroke-width:1.5;" width="118" x="442.5" y="396"/><ellipse cx="457.5" cy="412" fill="#ADD1B2" rx="11" ry="11" style="stroke:#A80036;stroke-width:1.0;"/><path d="M457.5469,418.2031 C459.0469,418.2031 460.2813,417.6406 461.1875,416.5781 L459.8125,415.0625 C459.2656,415.6563 458.6094,416.0469 457.8125,416.0469 C456.1406,416.0469 454.9844,414.7188 454.9844,412.4375 C454.9844,410.2188 456.1406,408.875 457.7031,408.875 C458.5156,408.875 459.1094,409.1875 459.6406,409.6719 L461.0156,408.125 C460.2656,407.3906 459.1094,406.7188 457.7031,406.7188 C454.75,406.7188 452.4219,408.8594 452.4219,412.5313 C452.4219,416.25 454.7969,418.2031 457.5469,418.2031 Z " fill="#000000"/><text fill="#000000" font-family="sans-serif" font-size="12" lengthAdjust="spacing" textLength="86" x="471.5" y="416.1016">&lt;relative-angle&gt;</text><line style="stroke:#A80036;stroke-width:1.5;" x1="443.5" x2="559.5" y1="428" y2="428"/><line style="stroke:#A80036;stroke-width:1.5;" x1="443.5" x2="559.5" y1="436" y2="436"/><!--MD5=[a2ec2339a56fcb0237d82d18a4c42968]
class <latitude>--><rect codeLine="11" fill="#FEFECE" filter="url(#f1tymjr36i17mx)" height="60.8906" id="&lt;latitude&gt;" style="stroke:#A80036;stroke-width:1.5;" width="87" x="241" y="517"/><ellipse cx="256" cy="533" fill="#ADD1B2" rx="11" ry="11" style="stroke:#A80036;stroke-width:1.0;"/><path d="M256.0469,539.2031 C257.5469,539.2031 258.7813,538.6406 259.6875,537.5781 L258.3125,536.0625 C257.7656,536.6563 257.1094,537.0469 256.3125,537.0469 C254.6406,537.0469 253.4844,535.7188 253.4844,533.4375 C253.4844,531.2188 254.6406,529.875 256.2031,529.875 C257.0156,529.875 257.6094,530.1875 258.1406,530.6719 L259.5156,529.125 C258.7656,528.3906 257.6094,527.7188 256.2031,527.7188 C253.25,527.7188 250.9219,529.8594 250.9219,533.5313 C250.9219,537.25 253.2969,539.2031 256.0469,539.2031 Z " fill="#000000"/><text fill="#000000" font-family="sans-serif" font-size="12" lengthAdjust="spacing" textLength="55" x="270" y="537.1016">&lt;latitude&gt;</text><line style="stroke:#A80036;stroke-width:1.5;" x1="242" x2="327" y1="549" y2="549"/><line style="stroke:#A80036;stroke-width:1.5;" x1="242" x2="327" y1="557" y2="557"/><text fill="#000000" font-family="sans-serif" font-size="11" lengthAdjust="spacing" textLength="63" x="247" y="571.2051">as(&lt;string&gt;)</text><!--MD5=[8e41317ead168297cef600deff51a9ac]
class <longitude>--><rect codeLine="12" fill="#FEFECE" filter="url(#f1tymjr36i17mx)" height="60.8906" id="&lt;longitude&gt;" style="stroke:#A80036;stroke-width:1.5;" width="97" x="363" y="517"/><ellipse cx="378" cy="533" fill="#ADD1B2" rx="11" ry="11" style="stroke:#A80036;stroke-width:1.0;"/><path d="M378.0469,539.2031 C379.5469,539.2031 380.7813,538.6406 381.6875,537.5781 L380.3125,536.0625 C379.7656,536.6563 379.1094,537.0469 378.3125,537.0469 C376.6406,537.0469 375.4844,535.7188 375.4844,533.4375 C375.4844,531.2188 376.6406,529.875 378.2031,529.875 C379.0156,529.875 379.6094,530.1875 380.1406,530.6719 L381.5156,529.125 C380.7656,528.3906 379.6094,527.7188 378.2031,527.7188 C375.25,527.7188 372.9219,529.8594 372.9219,533.5313 C372.9219,537.25 375.2969,539.2031 378.0469,539.2031 Z " fill="#000000"/><text fill="#000000" font-family="sans-serif" font-size="12" lengthAdjust="spacing" textLength="65" x="392" y="537.1016">&lt;longitude&gt;</text><line style="stroke:#A80036;stroke-width:1.5;" x1="364" x2="459" y1="549" y2="549"/><line style="stroke:#A80036;stroke-width:1.5;" x1="364" x2="459" y1="557" y2="557"/><text fill="#000000" font-family="sans-serif" font-size="11" lengthAdjust="spacing" textLength="63" x="369" y="571.2051">as(&lt;string&gt;)</text><!--MD5=[d51db7c0bd064ec6d11a901546bf82f7]
class <absolute-position>--><rect codeLine="13" fill="#FEFECE" filter="url(#f1tymjr36i17mx)" height="86.6719" id="&lt;absolute-position&gt;" style="stroke:#A80036;stroke-width:1.5;" width="140" x="425.5" y="236"/><ellipse cx="440.5" cy="252" fill="#ADD1B2" rx="11" ry="11" style="stroke:#A80036;stroke-width:1.0;"/><path d="M440.5469,258.2031 C442.0469,258.2031 443.2813,257.6406 444.1875,256.5781 L442.8125,255.0625 C442.2656,255.6563 441.6094,256.0469 440.8125,256.0469 C439.1406,256.0469 437.9844,254.7188 437.9844,252.4375 C437.9844,250.2188 439.1406,248.875 440.7031,248.875 C441.5156,248.875 442.1094,249.1875 442.6406,249.6719 L444.0156,248.125 C443.2656,247.3906 442.1094,246.7188 440.7031,246.7188 C437.75,246.7188 435.4219,248.8594 435.4219,252.5313 C435.4219,256.25 437.7969,258.2031 440.5469,258.2031 Z " fill="#000000"/><text fill="#000000" font-family="sans-serif" font-size="12" lengthAdjust="spacing" textLength="108" x="454.5" y="256.1016">&lt;absolute-position&gt;</text><line style="stroke:#A80036;stroke-width:1.5;" x1="426.5" x2="564.5" y1="268" y2="268"/><text fill="#000000" font-family="sans-serif" font-size="11" lengthAdjust="spacing" textLength="101" x="431.5" y="282.2051">latitude : &lt;latitude&gt;</text><text fill="#000000" font-family="sans-serif" font-size="11" lengthAdjust="spacing" textLength="123" x="431.5" y="295.0957">longitude : &lt;longitude&gt;</text><line style="stroke:#A80036;stroke-width:1.5;" x1="426.5" x2="564.5" y1="301.7813" y2="301.7813"/><text fill="#000000" font-family="sans-serif" font-size="11" lengthAdjust="spacing" textLength="63" x="431.5" y="315.9863">as(&lt;string&gt;)</text><!--MD5=[d29057efb96cd8b33dcfa2752669b337]
class <relative-position>--><rect codeLine="14" fill="#FEFECE" filter="url(#f1tymjr36i17mx)" height="86.6719" id="&lt;relative-position&gt;" style="stroke:#A80036;stroke-width:1.5;" width="140" x="600.5" y="236"/><ellipse cx="619.1" cy="252" fill="#ADD1B2" rx="11" ry="11" style="stroke:#A80036;stroke-width:1.0;"/><path d="M619.1469,258.2031 C620.6469,258.2031 621.8813,257.6406 622.7875,256.5781 L621.4125,255.0625 C620.8656,255.6563 620.2094,256.0469 619.4125,256.0469 C617.7406,256.0469 616.5844,254.7188 616.5844,252.4375 C616.5844,250.2188 617.7406,248.875 619.3031,248.875 C620.1156,248.875 620.7094,249.1875 621.2406,249.6719 L622.6156,248.125 C621.8656,247.3906 620.7094,246.7188 619.3031,246.7188 C616.35,246.7188 614.0219,248.8594 614.0219,252.5313 C614.0219,256.25 616.3969,258.2031 619.1469,258.2031 Z " fill="#000000"/><text fill="#000000" font-family="sans-serif" font-size="12" lengthAdjust="spacing" textLength="100" x="633.9" y="256.1016">&lt;relative-position&gt;</text><line style="stroke:#A80036;stroke-width:1.5;" x1="601.5" x2="739.5" y1="268" y2="268"/><text fill="#000000" font-family="sans-serif" font-size="11" lengthAdjust="spacing" textLength="128" x="606.5" y="282.2051">distance : &lt;single-float&gt;</text><text fill="#000000" font-family="sans-serif" font-size="11" lengthAdjust="spacing" textLength="125" x="606.5" y="295.0957">angle : &lt;relative-angle&gt;</text><line style="stroke:#A80036;stroke-width:1.5;" x1="601.5" x2="739.5" y1="301.7813" y2="301.7813"/><text fill="#000000" font-family="sans-serif" font-size="11" lengthAdjust="spacing" textLength="63" x="606.5" y="315.9863">as(&lt;string&gt;)</text><!--MD5=[b00b36c97820417d0cfbc14c47499844]
reverse link <object> to <sixty-unit>--><path codeLine="16" d="M394.62,71.79 C385.09,85.9 374.54,101.52 365.67,114.65 " fill="none" id="&lt;object&gt;-backto-&lt;sixty-unit&gt;" style="stroke:#A80036;stroke-width:1.0;"/><polygon fill="none" points="388.94,67.69,405.94,55.04,400.54,75.53,388.94,67.69" style="stroke:#A80036;stroke-width:1.0;"/><!--MD5=[e780fa8b6a3ae6e4ea50da6f495e0b80]
reverse link <object> to <position>--><path codeLine="17" d="M448.3,71.68 C459.57,88.35 472.28,107.17 481.96,121.49 " fill="none" id="&lt;object&gt;-backto-&lt;position&gt;" style="stroke:#A80036;stroke-width:1.0;"/><polygon fill="none" points="442.46,75.53,437.06,55.04,454.06,67.69,442.46,75.53" style="stroke:#A80036;stroke-width:1.0;"/><!--MD5=[399842939418d7da6d644a691b8e7fe5]
reverse link <sixty-unit> to <time>--><path codeLine="18" d="M297.97,189.77 C279.26,206.8 258.03,226.13 240.17,242.39 " fill="none" id="&lt;sixty-unit&gt;-backto-&lt;time&gt;" style="stroke:#A80036;stroke-width:1.0;"/><polygon fill="none" points="293.46,184.41,312.96,176.12,302.88,194.76,293.46,184.41" style="stroke:#A80036;stroke-width:1.0;"/><!--MD5=[70c01d2250c9d6c78bcfc4da0cdb211d]
reverse link <sixty-unit> to <angle>--><path codeLine="19" d="M346.63,196.23 C347.03,214 347.48,233.45 347.83,248.98 " fill="none" id="&lt;sixty-unit&gt;-backto-&lt;angle&gt;" style="stroke:#A80036;stroke-width:1.0;"/><polygon fill="none" points="339.63,196.28,346.17,176.12,353.63,195.96,339.63,196.28" style="stroke:#A80036;stroke-width:1.0;"/><!--MD5=[f18f0798250013e74898edcefb79dc20]
reverse link <time> to <time-of-day>--><path codeLine="20" d="M149.82,330.63 C127.33,352.89 101.94,378 84,395.75 " fill="none" id="&lt;time&gt;-backto-&lt;time-of-day&gt;" style="stroke:#A80036;stroke-width:1.0;"/><polygon fill="none" points="144.94,325.62,164.08,316.53,154.79,335.57,144.94,325.62" style="stroke:#A80036;stroke-width:1.0;"/><!--MD5=[0e1e1f8981633b49d9a41f4dc9d6aca1]
reverse link <time> to <time-offset>--><path codeLine="21" d="M200.91,336.78 C201.02,352.26 201.14,368.64 201.24,382.67 " fill="none" id="&lt;time&gt;-backto-&lt;time-offset&gt;" style="stroke:#A80036;stroke-width:1.0;"/><polygon fill="none" points="193.9,336.58,200.76,316.53,207.9,336.48,193.9,336.58" style="stroke:#A80036;stroke-width:1.0;"/><!--MD5=[d9800c8a1ca9025b2bc4fb173957c2bd]
reverse link <angle> to <directed-angle>--><path codeLine="22" d="M348.5,330.24 C348.5,347.65 348.5,366.86 348.5,382.94 " fill="none" id="&lt;angle&gt;-backto-&lt;directed-angle&gt;" style="stroke:#A80036;stroke-width:1.0;"/><polygon fill="none" points="341.5,330.21,348.5,310.21,355.5,330.21,341.5,330.21" style="stroke:#A80036;stroke-width:1.0;"/><!--MD5=[82567a5598e26b15736d975e7f008fbf]
reverse link <angle> to <relative-angle>--><path codeLine="23" d="M396.46,323.91 C422.71,347.68 454.2,376.18 475.81,395.75 " fill="none" id="&lt;angle&gt;-backto-&lt;relative-angle&gt;" style="stroke:#A80036;stroke-width:1.0;"/><polygon fill="none" points="391.45,328.82,381.32,310.21,400.85,318.44,391.45,328.82" style="stroke:#A80036;stroke-width:1.0;"/><!--MD5=[844cc1401127a5f2e93e939632be18f5]
reverse link <directed-angle> to <latitude>--><path codeLine="24" d="M320.79,475.34 C313.57,489.5 306.04,504.25 299.74,516.62 " fill="none" id="&lt;directed-angle&gt;-backto-&lt;latitude&gt;" style="stroke:#A80036;stroke-width:1.0;"/><polygon fill="none" points="314.67,471.94,329.99,457.3,327.14,478.3,314.67,471.94" style="stroke:#A80036;stroke-width:1.0;"/><!--MD5=[2a36fd28e449433d2d2c91aad2ac9b09]
reverse link <directed-angle> to <longitude>--><path codeLine="25" d="M375.78,475.34 C382.89,489.5 390.29,504.25 396.5,516.62 " fill="none" id="&lt;directed-angle&gt;-backto-&lt;longitude&gt;" style="stroke:#A80036;stroke-width:1.0;"/><polygon fill="none" points="369.44,478.31,366.72,457.3,381.95,472.03,369.44,478.31" style="stroke:#A80036;stroke-width:1.0;"/><!--MD5=[52ff8a37a6e1768e0ae50641bad5f849]
reverse link <position> to <absolute-position>--><path codeLine="26" d="M496.84,189.85 C496.62,204.67 496.37,221.22 496.14,235.97 " fill="none" id="&lt;position&gt;-backto-&lt;absolute-position&gt;" style="stroke:#A80036;stroke-width:1.0;"/><polygon fill="none" points="489.84,189.69,497.15,169.8,503.84,189.9,489.84,189.69" style="stroke:#A80036;stroke-width:1.0;"/><!--MD5=[af9d58a4b07a1c458ca7b9bc8a66e995]
reverse link <position> to <relative-position>--><path codeLine="27" d="M544.07,182.03 C565.84,198.65 591.95,218.56 614.77,235.97 " fill="none" id="&lt;position&gt;-backto-&lt;relative-position&gt;" style="stroke:#A80036;stroke-width:1.0;"/><polygon fill="none" points="539.68,187.49,528.03,169.8,548.18,176.36,539.68,187.49" style="stroke:#A80036;stroke-width:1.0;"/><!--MD5=[bb8dbba57a71d8355c21f79e096503b7]
@startuml

class "<object>"
abstract "<sixty-unit>"
class "<position>"
class "<time>"
class "<time-of-day>"
class "<time-offset>"
abstract "<angle>"
abstract "<directed-angle>"
class "<relative-angle>"
class "<latitude>"
class "<longitude>"
class "<absolute-position>"
class "<relative-position>"

"<object>"         <|- - "<sixty-unit>"
"<object>"         <|- - "<position>"
"<sixty-unit>"     <|- - "<time>"
"<sixty-unit>"     <|- - "<angle>"
"<time>"           <|- - "<time-of-day>"
"<time>"           <|- - "<time-offset>"
"<angle>"          <|- - "<directed-angle>"
"<angle>"          <|- - "<relative-angle>"
"<directed-angle>" <|- - "<latitude>"
"<directed-angle>" <|- - "<longitude>" 
"<position>"       <|- - "<absolute-position>"
"<position>"       <|- - "<relative-position>" 

"<sixty-unit>" : total-seconds : <integer>
"<directed-angle>" : direction : <string>
"<absolute-position>" : latitude : <latitude>
"<absolute-position>" : longitude : <longitude>
"<relative-position>" : distance : <single-float>
"<relative-position>" : angle : <relative-angle>

"<angle>" : as(<string>)
"<directed-angle>" : as(<string>)
"<latitude>" : as(<string>)
"<longitude>" : as(<string>)
"<absolute-position>" : as(<string>)
"<relative-position>" : as(<string>)
"<time>" : decode-total-seconds(<>)
"<time>" : as(<string>)
"<time-offset>" : as(<string>)
"<time-offset>" : past?(<>)

@enduml

PlantUML version 1.2022.0(Tue Jan 11 17:16:42 CET 2022)
(LGPL source distribution)
Java Runtime: OpenJDK Runtime Environment
JVM: OpenJDK 64-Bit Server VM
Default Encoding: UTF-8
Language: es
Country: ES
--></g></svg>