<?xml version="1.0" encoding="UTF-8" standalone="no"?><svg xmlns="http://www.w3.org/2000/svg" xmlns:xlink="http://www.w3.org/1999/xlink" contentScriptType="application/ecmascript" contentStyleType="text/css" height="553px" preserveAspectRatio="none" style="width:753px;height:553px;background:#FFFFFF;" version="1.1" viewBox="0 0 753 553" width="753px" zoomAndPan="magnify"><defs><filter height="300%" id="f8x6vb3fpojpn" width="300%" x="-1" y="-1"><feGaussianBlur result="blurOut" stdDeviation="2.0"/><feColorMatrix in="blurOut" result="blurOut2" type="matrix" values="0 0 0 0 0 0 0 0 0 0 0 0 0 0 0 0 0 0 .4 0"/><feOffset dx="4.0" dy="4.0" in="blurOut2" result="blurOut3"/><feBlend in="SourceGraphic" in2="blurOut3" mode="normal"/></filter></defs><g><!--MD5=[0082b46695ab9a4236ee6e2292a56a91]
class <object>--><rect codeLine="2" fill="#FEFECE" filter="url(#f8x6vb3fpojpn)" height="48" id="&lt;object&gt;" style="stroke:#A80036;stroke-width:1.5;" width="78" x="381.5" y="7"/><ellipse cx="396.5" cy="23" fill="#ADD1B2" rx="11" ry="11" style="stroke:#A80036;stroke-width:1.0;"/><path d="M396.5469,29.2031 C398.0469,29.2031 399.2813,28.6406 400.1875,27.5781 L398.8125,26.0625 C398.2656,26.6563 397.6094,27.0469 396.8125,27.0469 C395.1406,27.0469 393.9844,25.7188 393.9844,23.4375 C393.9844,21.2188 395.1406,19.875 396.7031,19.875 C397.5156,19.875 398.1094,20.1875 398.6406,20.6719 L400.0156,19.125 C399.2656,18.3906 398.1094,17.7188 396.7031,17.7188 C393.75,17.7188 391.4219,19.8594 391.4219,23.5313 C391.4219,27.25 393.7969,29.2031 396.5469,29.2031 Z " fill="#000000"/><text fill="#000000" font-family="sans-serif" font-size="12" lengthAdjust="spacing" textLength="46" x="410.5" y="27.1016">&lt;object&gt;</text><line style="stroke:#A80036;stroke-width:1.5;" x1="382.5" x2="458.5" y1="39" y2="39"/><line style="stroke:#A80036;stroke-width:1.5;" x1="382.5" x2="458.5" y1="47" y2="47"/><!--MD5=[b2b917591af49fe4ba5dff5b4a6b4397]
class <sixty-unit>--><rect codeLine="3" fill="#FEFECE" filter="url(#f8x6vb3fpojpn)" height="60.8906" id="&lt;sixty-unit&gt;" style="stroke:#A80036;stroke-width:1.5;" width="144" x="273.5" y="115"/><ellipse cx="312.35" cy="131" fill="#A9DCDF" rx="11" ry="11" style="stroke:#A80036;stroke-width:1.0;"/><path d="M311.4906,130.6406 C311.7875,129.5313 312.1,128.25 312.3656,127.0625 L312.4281,127.0625 C312.6938,128.25 313.0219,129.5313 313.3188,130.6406 L313.5688,131.6563 L311.2406,131.6563 L311.4906,130.6406 Z M307.5063,136.25 L310.0531,136.25 L310.7406,133.6094 L314.0844,133.6094 L314.7406,136.25 L317.3969,136.25 L313.9438,125.1719 L310.9594,125.1719 L307.5063,136.25 Z " fill="#000000"/><text fill="#000000" font-family="sans-serif" font-size="12" font-style="italic" lengthAdjust="spacing" textLength="59" x="331.65" y="135.1016">&lt;sixty-unit&gt;</text><line style="stroke:#A80036;stroke-width:1.5;" x1="274.5" x2="416.5" y1="147" y2="147"/><text fill="#000000" font-family="sans-serif" font-size="11" lengthAdjust="spacing" textLength="132" x="279.5" y="161.2051">total-seconds : &lt;integer&gt;</text><line style="stroke:#A80036;stroke-width:1.5;" x1="274.5" x2="416.5" y1="167.8906" y2="167.8906"/><!--MD5=[d7496b5426f31d7a637df3ab9e29fecc]
class <time>--><rect codeLine="4" fill="#FEFECE" filter="url(#f8x6vb3fpojpn)" height="48" id="&lt;time&gt;" style="stroke:#A80036;stroke-width:1.5;" width="67" x="168" y="249"/><ellipse cx="183" cy="265" fill="#A9DCDF" rx="11" ry="11" style="stroke:#A80036;stroke-width:1.0;"/><path d="M182.1406,264.6406 C182.4375,263.5313 182.75,262.25 183.0156,261.0625 L183.0781,261.0625 C183.3438,262.25 183.6719,263.5313 183.9688,264.6406 L184.2188,265.6563 L181.8906,265.6563 L182.1406,264.6406 Z M178.1563,270.25 L180.7031,270.25 L181.3906,267.6094 L184.7344,267.6094 L185.3906,270.25 L188.0469,270.25 L184.5938,259.1719 L181.6094,259.1719 L178.1563,270.25 Z " fill="#000000"/><text fill="#000000" font-family="sans-serif" font-size="12" font-style="italic" lengthAdjust="spacing" textLength="35" x="197" y="269.1016">&lt;time&gt;</text><line style="stroke:#A80036;stroke-width:1.5;" x1="169" x2="234" y1="281" y2="281"/><line style="stroke:#A80036;stroke-width:1.5;" x1="169" x2="234" y1="289" y2="289"/><!--MD5=[969e5e072e5a5f50cb0447b26ed85229]
class <angle>--><rect codeLine="5" fill="#FEFECE" filter="url(#f8x6vb3fpojpn)" height="48" id="&lt;angle&gt;" style="stroke:#A80036;stroke-width:1.5;" width="72" x="312.5" y="249"/><ellipse cx="327.5" cy="265" fill="#A9DCDF" rx="11" ry="11" style="stroke:#A80036;stroke-width:1.0;"/><path d="M326.6406,264.6406 C326.9375,263.5313 327.25,262.25 327.5156,261.0625 L327.5781,261.0625 C327.8438,262.25 328.1719,263.5313 328.4688,264.6406 L328.7188,265.6563 L326.3906,265.6563 L326.6406,264.6406 Z M322.6563,270.25 L325.2031,270.25 L325.8906,267.6094 L329.2344,267.6094 L329.8906,270.25 L332.5469,270.25 L329.0938,259.1719 L326.1094,259.1719 L322.6563,270.25 Z " fill="#000000"/><text fill="#000000" font-family="sans-serif" font-size="12" font-style="italic" lengthAdjust="spacing" textLength="40" x="341.5" y="269.1016">&lt;angle&gt;</text><line style="stroke:#A80036;stroke-width:1.5;" x1="313.5" x2="383.5" y1="281" y2="281"/><line style="stroke:#A80036;stroke-width:1.5;" x1="313.5" x2="383.5" y1="289" y2="289"/><!--MD5=[77ae869fbe714cad66a7c6ddf5b69c80]
class <time-of-day>--><rect codeLine="6" fill="#FEFECE" filter="url(#f8x6vb3fpojpn)" height="48" id="&lt;time-of-day&gt;" style="stroke:#A80036;stroke-width:1.5;" width="107" x="7" y="376.5"/><ellipse cx="22" cy="392.5" fill="#ADD1B2" rx="11" ry="11" style="stroke:#A80036;stroke-width:1.0;"/><path d="M22.0469,398.7031 C23.5469,398.7031 24.7813,398.1406 25.6875,397.0781 L24.3125,395.5625 C23.7656,396.1563 23.1094,396.5469 22.3125,396.5469 C20.6406,396.5469 19.4844,395.2188 19.4844,392.9375 C19.4844,390.7188 20.6406,389.375 22.2031,389.375 C23.0156,389.375 23.6094,389.6875 24.1406,390.1719 L25.5156,388.625 C24.7656,387.8906 23.6094,387.2188 22.2031,387.2188 C19.25,387.2188 16.9219,389.3594 16.9219,393.0313 C16.9219,396.75 19.2969,398.7031 22.0469,398.7031 Z " fill="#000000"/><text fill="#000000" font-family="sans-serif" font-size="12" lengthAdjust="spacing" textLength="75" x="36" y="396.6016">&lt;time-of-day&gt;</text><line style="stroke:#A80036;stroke-width:1.5;" x1="8" x2="113" y1="408.5" y2="408.5"/><line style="stroke:#A80036;stroke-width:1.5;" x1="8" x2="113" y1="416.5" y2="416.5"/><!--MD5=[a3c3d24e6fe02b4bc23145b671fbd87b]
class <time-offset>--><rect codeLine="7" fill="#FEFECE" filter="url(#f8x6vb3fpojpn)" height="48" id="&lt;time-offset&gt;" style="stroke:#A80036;stroke-width:1.5;" width="105" x="149" y="376.5"/><ellipse cx="164" cy="392.5" fill="#ADD1B2" rx="11" ry="11" style="stroke:#A80036;stroke-width:1.0;"/><path d="M164.0469,398.7031 C165.5469,398.7031 166.7813,398.1406 167.6875,397.0781 L166.3125,395.5625 C165.7656,396.1563 165.1094,396.5469 164.3125,396.5469 C162.6406,396.5469 161.4844,395.2188 161.4844,392.9375 C161.4844,390.7188 162.6406,389.375 164.2031,389.375 C165.0156,389.375 165.6094,389.6875 166.1406,390.1719 L167.5156,388.625 C166.7656,387.8906 165.6094,387.2188 164.2031,387.2188 C161.25,387.2188 158.9219,389.3594 158.9219,393.0313 C158.9219,396.75 161.2969,398.7031 164.0469,398.7031 Z " fill="#000000"/><text fill="#000000" font-family="sans-serif" font-size="12" lengthAdjust="spacing" textLength="73" x="178" y="396.6016">&lt;time-offset&gt;</text><line style="stroke:#A80036;stroke-width:1.5;" x1="150" x2="253" y1="408.5" y2="408.5"/><line style="stroke:#A80036;stroke-width:1.5;" x1="150" x2="253" y1="416.5" y2="416.5"/><!--MD5=[bf5f47cc84b1456115fe8c3c79067b9d]
class <directed-angle>--><rect codeLine="8" fill="#FEFECE" filter="url(#f8x6vb3fpojpn)" height="60.8906" id="&lt;directed-angle&gt;" style="stroke:#A80036;stroke-width:1.5;" width="118" x="289.5" y="370"/><ellipse cx="304.5" cy="386" fill="#A9DCDF" rx="11" ry="11" style="stroke:#A80036;stroke-width:1.0;"/><path d="M303.6406,385.6406 C303.9375,384.5313 304.25,383.25 304.5156,382.0625 L304.5781,382.0625 C304.8438,383.25 305.1719,384.5313 305.4688,385.6406 L305.7188,386.6563 L303.3906,386.6563 L303.6406,385.6406 Z M299.6563,391.25 L302.2031,391.25 L302.8906,388.6094 L306.2344,388.6094 L306.8906,391.25 L309.5469,391.25 L306.0938,380.1719 L303.1094,380.1719 L299.6563,391.25 Z " fill="#000000"/><text fill="#000000" font-family="sans-serif" font-size="12" font-style="italic" lengthAdjust="spacing" textLength="86" x="318.5" y="390.1016">&lt;directed-angle&gt;</text><line style="stroke:#A80036;stroke-width:1.5;" x1="290.5" x2="406.5" y1="402" y2="402"/><text fill="#000000" font-family="sans-serif" font-size="11" lengthAdjust="spacing" textLength="99" x="295.5" y="416.2051">direction : &lt;string&gt;</text><line style="stroke:#A80036;stroke-width:1.5;" x1="290.5" x2="406.5" y1="422.8906" y2="422.8906"/><!--MD5=[49c666db2c3455425d7a472d5461a439]
class <relative-angle>--><rect codeLine="9" fill="#FEFECE" filter="url(#f8x6vb3fpojpn)" height="48" id="&lt;relative-angle&gt;" style="stroke:#A80036;stroke-width:1.5;" width="118" x="442.5" y="376.5"/><ellipse cx="457.5" cy="392.5" fill="#ADD1B2" rx="11" ry="11" style="stroke:#A80036;stroke-width:1.0;"/><path d="M457.5469,398.7031 C459.0469,398.7031 460.2813,398.1406 461.1875,397.0781 L459.8125,395.5625 C459.2656,396.1563 458.6094,396.5469 457.8125,396.5469 C456.1406,396.5469 454.9844,395.2188 454.9844,392.9375 C454.9844,390.7188 456.1406,389.375 457.7031,389.375 C458.5156,389.375 459.1094,389.6875 459.6406,390.1719 L461.0156,388.625 C460.2656,387.8906 459.1094,387.2188 457.7031,387.2188 C454.75,387.2188 452.4219,389.3594 452.4219,393.0313 C452.4219,396.75 454.7969,398.7031 457.5469,398.7031 Z " fill="#000000"/><text fill="#000000" font-family="sans-serif" font-size="12" lengthAdjust="spacing" textLength="86" x="471.5" y="396.6016">&lt;relative-angle&gt;</text><line style="stroke:#A80036;stroke-width:1.5;" x1="443.5" x2="559.5" y1="408.5" y2="408.5"/><line style="stroke:#A80036;stroke-width:1.5;" x1="443.5" x2="559.5" y1="416.5" y2="416.5"/><!--MD5=[e34761b0d4991b439be72655a3e62392]
class <position>--><rect codeLine="10" fill="#FEFECE" filter="url(#f8x6vb3fpojpn)" height="48" id="&lt;position&gt;" style="stroke:#A80036;stroke-width:1.5;" width="87" x="453" y="121.5"/><ellipse cx="468" cy="137.5" fill="#A9DCDF" rx="11" ry="11" style="stroke:#A80036;stroke-width:1.0;"/><path d="M467.1406,137.1406 C467.4375,136.0313 467.75,134.75 468.0156,133.5625 L468.0781,133.5625 C468.3438,134.75 468.6719,136.0313 468.9688,137.1406 L469.2188,138.1563 L466.8906,138.1563 L467.1406,137.1406 Z M463.1563,142.75 L465.7031,142.75 L466.3906,140.1094 L469.7344,140.1094 L470.3906,142.75 L473.0469,142.75 L469.5938,131.6719 L466.6094,131.6719 L463.1563,142.75 Z " fill="#000000"/><text fill="#000000" font-family="sans-serif" font-size="12" font-style="italic" lengthAdjust="spacing" textLength="55" x="482" y="141.6016">&lt;position&gt;</text><line style="stroke:#A80036;stroke-width:1.5;" x1="454" x2="539" y1="153.5" y2="153.5"/><line style="stroke:#A80036;stroke-width:1.5;" x1="454" x2="539" y1="161.5" y2="161.5"/><!--MD5=[d51db7c0bd064ec6d11a901546bf82f7]
class <absolute-position>--><rect codeLine="11" fill="#FEFECE" filter="url(#f8x6vb3fpojpn)" height="73.7813" id="&lt;absolute-position&gt;" style="stroke:#A80036;stroke-width:1.5;" width="140" x="424.5" y="236"/><ellipse cx="439.5" cy="252" fill="#ADD1B2" rx="11" ry="11" style="stroke:#A80036;stroke-width:1.0;"/><path d="M439.5469,258.2031 C441.0469,258.2031 442.2813,257.6406 443.1875,256.5781 L441.8125,255.0625 C441.2656,255.6563 440.6094,256.0469 439.8125,256.0469 C438.1406,256.0469 436.9844,254.7188 436.9844,252.4375 C436.9844,250.2188 438.1406,248.875 439.7031,248.875 C440.5156,248.875 441.1094,249.1875 441.6406,249.6719 L443.0156,248.125 C442.2656,247.3906 441.1094,246.7188 439.7031,246.7188 C436.75,246.7188 434.4219,248.8594 434.4219,252.5313 C434.4219,256.25 436.7969,258.2031 439.5469,258.2031 Z " fill="#000000"/><text fill="#000000" font-family="sans-serif" font-size="12" lengthAdjust="spacing" textLength="108" x="453.5" y="256.1016">&lt;absolute-position&gt;</text><line style="stroke:#A80036;stroke-width:1.5;" x1="425.5" x2="563.5" y1="268" y2="268"/><text fill="#000000" font-family="sans-serif" font-size="11" lengthAdjust="spacing" textLength="104" x="430.5" y="282.2051">latitude :: &lt;latitude&gt;</text><text fill="#000000" font-family="sans-serif" font-size="11" lengthAdjust="spacing" textLength="123" x="430.5" y="295.0957">longitude : &lt;longitude&gt;</text><line style="stroke:#A80036;stroke-width:1.5;" x1="425.5" x2="563.5" y1="301.7813" y2="301.7813"/><!--MD5=[d29057efb96cd8b33dcfa2752669b337]
class <relative-position>--><rect codeLine="12" fill="#FEFECE" filter="url(#f8x6vb3fpojpn)" height="73.7813" id="&lt;relative-position&gt;" style="stroke:#A80036;stroke-width:1.5;" width="140" x="599.5" y="236"/><ellipse cx="618.1" cy="252" fill="#ADD1B2" rx="11" ry="11" style="stroke:#A80036;stroke-width:1.0;"/><path d="M618.1469,258.2031 C619.6469,258.2031 620.8813,257.6406 621.7875,256.5781 L620.4125,255.0625 C619.8656,255.6563 619.2094,256.0469 618.4125,256.0469 C616.7406,256.0469 615.5844,254.7188 615.5844,252.4375 C615.5844,250.2188 616.7406,248.875 618.3031,248.875 C619.1156,248.875 619.7094,249.1875 620.2406,249.6719 L621.6156,248.125 C620.8656,247.3906 619.7094,246.7188 618.3031,246.7188 C615.35,246.7188 613.0219,248.8594 613.0219,252.5313 C613.0219,256.25 615.3969,258.2031 618.1469,258.2031 Z " fill="#000000"/><text fill="#000000" font-family="sans-serif" font-size="12" lengthAdjust="spacing" textLength="100" x="632.9" y="256.1016">&lt;relative-position&gt;</text><line style="stroke:#A80036;stroke-width:1.5;" x1="600.5" x2="738.5" y1="268" y2="268"/><text fill="#000000" font-family="sans-serif" font-size="11" lengthAdjust="spacing" textLength="128" x="605.5" y="282.2051">distance : &lt;single-float&gt;</text><text fill="#000000" font-family="sans-serif" font-size="11" lengthAdjust="spacing" textLength="125" x="605.5" y="295.0957">angle : &lt;relative-angle&gt;</text><line style="stroke:#A80036;stroke-width:1.5;" x1="600.5" x2="738.5" y1="301.7813" y2="301.7813"/><!--MD5=[a2ec2339a56fcb0237d82d18a4c42968]
class <latitude>--><rect codeLine="13" fill="#FEFECE" filter="url(#f8x6vb3fpojpn)" height="48" id="&lt;latitude&gt;" style="stroke:#A80036;stroke-width:1.5;" width="87" x="241" y="491"/><ellipse cx="256" cy="507" fill="#ADD1B2" rx="11" ry="11" style="stroke:#A80036;stroke-width:1.0;"/><path d="M256.0469,513.2031 C257.5469,513.2031 258.7813,512.6406 259.6875,511.5781 L258.3125,510.0625 C257.7656,510.6563 257.1094,511.0469 256.3125,511.0469 C254.6406,511.0469 253.4844,509.7188 253.4844,507.4375 C253.4844,505.2188 254.6406,503.875 256.2031,503.875 C257.0156,503.875 257.6094,504.1875 258.1406,504.6719 L259.5156,503.125 C258.7656,502.3906 257.6094,501.7188 256.2031,501.7188 C253.25,501.7188 250.9219,503.8594 250.9219,507.5313 C250.9219,511.25 253.2969,513.2031 256.0469,513.2031 Z " fill="#000000"/><text fill="#000000" font-family="sans-serif" font-size="12" lengthAdjust="spacing" textLength="55" x="270" y="511.1016">&lt;latitude&gt;</text><line style="stroke:#A80036;stroke-width:1.5;" x1="242" x2="327" y1="523" y2="523"/><line style="stroke:#A80036;stroke-width:1.5;" x1="242" x2="327" y1="531" y2="531"/><!--MD5=[8e41317ead168297cef600deff51a9ac]
class <longitude>--><rect codeLine="14" fill="#FEFECE" filter="url(#f8x6vb3fpojpn)" height="48" id="&lt;longitude&gt;" style="stroke:#A80036;stroke-width:1.5;" width="97" x="363" y="491"/><ellipse cx="378" cy="507" fill="#ADD1B2" rx="11" ry="11" style="stroke:#A80036;stroke-width:1.0;"/><path d="M378.0469,513.2031 C379.5469,513.2031 380.7813,512.6406 381.6875,511.5781 L380.3125,510.0625 C379.7656,510.6563 379.1094,511.0469 378.3125,511.0469 C376.6406,511.0469 375.4844,509.7188 375.4844,507.4375 C375.4844,505.2188 376.6406,503.875 378.2031,503.875 C379.0156,503.875 379.6094,504.1875 380.1406,504.6719 L381.5156,503.125 C380.7656,502.3906 379.6094,501.7188 378.2031,501.7188 C375.25,501.7188 372.9219,503.8594 372.9219,507.5313 C372.9219,511.25 375.2969,513.2031 378.0469,513.2031 Z " fill="#000000"/><text fill="#000000" font-family="sans-serif" font-size="12" lengthAdjust="spacing" textLength="65" x="392" y="511.1016">&lt;longitude&gt;</text><line style="stroke:#A80036;stroke-width:1.5;" x1="364" x2="459" y1="523" y2="523"/><line style="stroke:#A80036;stroke-width:1.5;" x1="364" x2="459" y1="531" y2="531"/><!--MD5=[b00b36c97820417d0cfbc14c47499844]
reverse link <object> to <sixty-unit>--><path codeLine="16" d="M393.97,71.79 C384.57,85.9 374.16,101.52 365.4,114.65 " fill="none" id="&lt;object&gt;-backto-&lt;sixty-unit&gt;" style="stroke:#A80036;stroke-width:1.0;"/><polygon fill="none" points="388.22,67.8,405.14,55.04,399.87,75.56,388.22,67.8" style="stroke:#A80036;stroke-width:1.0;"/><!--MD5=[e780fa8b6a3ae6e4ea50da6f495e0b80]
reverse link <object> to <position>--><path codeLine="17" d="M447.3,71.68 C458.57,88.35 471.28,107.17 480.96,121.49 " fill="none" id="&lt;object&gt;-backto-&lt;position&gt;" style="stroke:#A80036;stroke-width:1.0;"/><polygon fill="none" points="441.46,75.53,436.06,55.04,453.06,67.69,441.46,75.53" style="stroke:#A80036;stroke-width:1.0;"/><!--MD5=[399842939418d7da6d644a691b8e7fe5]
reverse link <sixty-unit> to <time>--><path codeLine="18" d="M296.26,189.42 C273.45,209.29 247.25,232.13 228.19,248.74 " fill="none" id="&lt;sixty-unit&gt;-backto-&lt;time&gt;" style="stroke:#A80036;stroke-width:1.0;"/><polygon fill="none" points="291.7,184.11,311.37,176.24,300.9,194.66,291.7,184.11" style="stroke:#A80036;stroke-width:1.0;"/><!--MD5=[70c01d2250c9d6c78bcfc4da0cdb211d]
reverse link <sixty-unit> to <angle>--><path codeLine="19" d="M346.69,196.4 C347.13,214.48 347.59,234.04 347.94,248.74 " fill="none" id="&lt;sixty-unit&gt;-backto-&lt;angle&gt;" style="stroke:#A80036;stroke-width:1.0;"/><polygon fill="none" points="339.69,196.4,346.21,176.24,353.69,196.07,339.69,196.4" style="stroke:#A80036;stroke-width:1.0;"/><!--MD5=[f18f0798250013e74898edcefb79dc20]
reverse link <time> to <time-of-day>--><path codeLine="20" d="M160.56,310.44 C136.73,331.65 107.4,357.75 86.68,376.2 " fill="none" id="&lt;time&gt;-backto-&lt;time-of-day&gt;" style="stroke:#A80036;stroke-width:1.0;"/><polygon fill="none" points="156.04,305.09,175.64,297.02,165.35,315.54,156.04,305.09" style="stroke:#A80036;stroke-width:1.0;"/><!--MD5=[0e1e1f8981633b49d9a41f4dc9d6aca1]
reverse link <time> to <time-offset>--><path codeLine="21" d="M201.5,317.29 C201.5,337.06 201.5,359.7 201.5,376.2 " fill="none" id="&lt;time&gt;-backto-&lt;time-offset&gt;" style="stroke:#A80036;stroke-width:1.0;"/><polygon fill="none" points="194.5,317.02,201.5,297.02,208.5,317.02,194.5,317.02" style="stroke:#A80036;stroke-width:1.0;"/><!--MD5=[d9800c8a1ca9025b2bc4fb173957c2bd]
reverse link <angle> to <directed-angle>--><path codeLine="22" d="M348.5,317.09 C348.5,334.53 348.5,354.22 348.5,369.98 " fill="none" id="&lt;angle&gt;-backto-&lt;directed-angle&gt;" style="stroke:#A80036;stroke-width:1.0;"/><polygon fill="none" points="341.5,317.02,348.5,297.02,355.5,317.02,341.5,317.02" style="stroke:#A80036;stroke-width:1.0;"/><!--MD5=[82567a5598e26b15736d975e7f008fbf]
reverse link <angle> to <relative-angle>--><path codeLine="23" d="M392.24,309.88 C418.31,331.27 450.65,357.79 473.36,376.42 " fill="none" id="&lt;angle&gt;-backto-&lt;relative-angle&gt;" style="stroke:#A80036;stroke-width:1.0;"/><polygon fill="none" points="387.59,315.11,376.56,297.02,396.47,304.29,387.59,315.11" style="stroke:#A80036;stroke-width:1.0;"/><!--MD5=[844cc1401127a5f2e93e939632be18f5]
reverse link <directed-angle> to <latitude>--><path codeLine="24" d="M321.66,448.68 C313.41,463.18 304.69,478.51 297.77,490.67 " fill="none" id="&lt;directed-angle&gt;-backto-&lt;latitude&gt;" style="stroke:#A80036;stroke-width:1.0;"/><polygon fill="none" points="315.71,444.98,331.68,431.06,327.88,451.9,315.71,444.98" style="stroke:#A80036;stroke-width:1.0;"/><!--MD5=[2a36fd28e449433d2d2c91aad2ac9b09]
reverse link <directed-angle> to <longitude>--><path codeLine="25" d="M374.92,448.68 C383.04,463.18 391.63,478.51 398.43,490.67 " fill="none" id="&lt;directed-angle&gt;-backto-&lt;longitude&gt;" style="stroke:#A80036;stroke-width:1.0;"/><polygon fill="none" points="368.72,451.93,365.05,431.06,380.93,445.09,368.72,451.93" style="stroke:#A80036;stroke-width:1.0;"/><!--MD5=[52ff8a37a6e1768e0ae50641bad5f849]
reverse link <position> to <absolute-position>--><path codeLine="26" d="M495.81,189.59 C495.57,204.65 495.31,221.39 495.08,235.82 " fill="none" id="&lt;position&gt;-backto-&lt;absolute-position&gt;" style="stroke:#A80036;stroke-width:1.0;"/><polygon fill="none" points="488.82,189.4,496.13,169.52,502.81,189.63,488.82,189.4" style="stroke:#A80036;stroke-width:1.0;"/><!--MD5=[af9d58a4b07a1c458ca7b9bc8a66e995]
reverse link <position> to <relative-position>--><path codeLine="27" d="M544.65,181.43 C568.01,198.38 596.05,218.72 619.63,235.82 " fill="none" id="&lt;position&gt;-backto-&lt;relative-position&gt;" style="stroke:#A80036;stroke-width:1.0;"/><polygon fill="none" points="540.31,186.93,528.23,169.52,548.53,175.6,540.31,186.93" style="stroke:#A80036;stroke-width:1.0;"/><!--MD5=[28d079e977fb24eabca839a9bef42abe]
@startuml

class "<object>"
abstract "<sixty-unit>"
abstract "<time>"
abstract "<angle>"
class "<time-of-day>"
class "<time-offset>"
abstract "<directed-angle>"
class "<relative-angle>"
abstract "<position>"
class "<absolute-position>"
class "<relative-position>"
class "<latitude>"
class "<longitude>"

"<object>"         <|- - "<sixty-unit>"
"<object>"         <|- - "<position>"
"<sixty-unit>"     <|- - "<time>"
"<sixty-unit>"     <|- - "<angle>"
"<time>"           <|- - "<time-of-day>"
"<time>"           <|- - "<time-offset>"
"<angle>"          <|- - "<directed-angle>"
"<angle>"          <|- - "<relative-angle>"
"<directed-angle>" <|- - "<latitude>"
"<directed-angle>" <|- - "<longitude>" 
"<position>"       <|- - "<absolute-position>"
"<position>"       <|- - "<relative-position>" 

"<sixty-unit>" : total-seconds : <integer>
"<directed-angle>" : direction : <string>
"<absolute-position>" : latitude :: <latitude>
"<absolute-position>" : longitude : <longitude>
"<relative-position>" : distance : <single-float>
"<relative-position>" : angle : <relative-angle>

@enduml

PlantUML version 1.2022.0(Tue Jan 11 17:16:42 CET 2022)
(LGPL source distribution)
Java Runtime: OpenJDK Runtime Environment
JVM: OpenJDK 64-Bit Server VM
Default Encoding: UTF-8
Language: es
Country: ES
--></g></svg>