<?xml version="1.0" encoding="UTF-8" standalone="no"?><svg xmlns="http://www.w3.org/2000/svg" xmlns:xlink="http://www.w3.org/1999/xlink" contentStyleType="text/css" height="486px" preserveAspectRatio="none" style="width:724px;height:486px;background:#FFFFFF;" version="1.1" viewBox="0 0 724 486" width="724px" zoomAndPan="magnify"><defs/><g><!--MD5=[d7496b5426f31d7a637df3ab9e29fecc]
class <time>--><g id="elem_&lt;time&gt;"><rect codeLine="2" fill="#F1F1F1" height="64.2969" id="&lt;time&gt;" rx="2.5" ry="2.5" style="stroke:#181818;stroke-width:0.5;" width="193" x="61" y="7"/><ellipse cx="126.25" cy="23" fill="#ADD1B2" rx="11" ry="11" style="stroke:#181818;stroke-width:1.0;"/><path d="M129.2188,28.6406 Q128.6406,28.9375 128,29.0781 Q127.3594,29.2344 126.6563,29.2344 Q124.1563,29.2344 122.8281,27.5938 Q121.5156,25.9375 121.5156,22.8125 Q121.5156,19.6875 122.8281,18.0313 Q124.1563,16.375 126.6563,16.375 Q127.3594,16.375 128,16.5313 Q128.6563,16.6875 129.2188,16.9844 L129.2188,19.7031 Q128.5938,19.125 128,18.8594 Q127.4063,18.5781 126.7813,18.5781 Q125.4375,18.5781 124.75,19.6563 Q124.0625,20.7188 124.0625,22.8125 Q124.0625,24.9063 124.75,25.9844 Q125.4375,27.0469 126.7813,27.0469 Q127.4063,27.0469 128,26.7813 Q128.5938,26.5 129.2188,25.9219 L129.2188,28.6406 Z " fill="#000000"/><text fill="#000000" font-family="sans-serif" font-size="14" lengthAdjust="spacing" textLength="54" x="146.75" y="27.8467">&lt;time&gt;</text><line style="stroke:#181818;stroke-width:0.5;" x1="62" x2="253" y1="39" y2="39"/><text fill="#000000" font-family="sans-serif" font-size="14" lengthAdjust="spacing" textLength="181" x="67" y="55.9951">total-seconds : &lt;integer&gt;</text><line style="stroke:#181818;stroke-width:0.5;" x1="62" x2="253" y1="63.2969" y2="63.2969"/></g><!--MD5=[77ae869fbe714cad66a7c6ddf5b69c80]
class <time-of-day>--><g id="elem_&lt;time-of-day&gt;"><rect codeLine="6" fill="#F1F1F1" height="48" id="&lt;time-of-day&gt;" rx="2.5" ry="2.5" style="stroke:#181818;stroke-width:0.5;" width="133" x="7" y="148.5"/><ellipse cx="22" cy="164.5" fill="#ADD1B2" rx="11" ry="11" style="stroke:#181818;stroke-width:1.0;"/><path d="M24.9688,170.1406 Q24.3906,170.4375 23.75,170.5781 Q23.1094,170.7344 22.4063,170.7344 Q19.9063,170.7344 18.5781,169.0938 Q17.2656,167.4375 17.2656,164.3125 Q17.2656,161.1875 18.5781,159.5313 Q19.9063,157.875 22.4063,157.875 Q23.1094,157.875 23.75,158.0313 Q24.4063,158.1875 24.9688,158.4844 L24.9688,161.2031 Q24.3438,160.625 23.75,160.3594 Q23.1563,160.0781 22.5313,160.0781 Q21.1875,160.0781 20.5,161.1563 Q19.8125,162.2188 19.8125,164.3125 Q19.8125,166.4063 20.5,167.4844 Q21.1875,168.5469 22.5313,168.5469 Q23.1563,168.5469 23.75,168.2813 Q24.3438,168 24.9688,167.4219 L24.9688,170.1406 Z " fill="#000000"/><text fill="#000000" font-family="sans-serif" font-size="14" lengthAdjust="spacing" textLength="101" x="36" y="169.3467">&lt;time-of-day&gt;</text><line style="stroke:#181818;stroke-width:0.5;" x1="8" x2="139" y1="180.5" y2="180.5"/><line style="stroke:#181818;stroke-width:0.5;" x1="8" x2="139" y1="188.5" y2="188.5"/></g><!--MD5=[a3c3d24e6fe02b4bc23145b671fbd87b]
class <time-offset>--><g id="elem_&lt;time-offset&gt;"><rect codeLine="7" fill="#F1F1F1" height="48" id="&lt;time-offset&gt;" rx="2.5" ry="2.5" style="stroke:#181818;stroke-width:0.5;" width="130" x="175.5" y="148.5"/><ellipse cx="190.5" cy="164.5" fill="#ADD1B2" rx="11" ry="11" style="stroke:#181818;stroke-width:1.0;"/><path d="M193.4688,170.1406 Q192.8906,170.4375 192.25,170.5781 Q191.6094,170.7344 190.9063,170.7344 Q188.4063,170.7344 187.0781,169.0938 Q185.7656,167.4375 185.7656,164.3125 Q185.7656,161.1875 187.0781,159.5313 Q188.4063,157.875 190.9063,157.875 Q191.6094,157.875 192.25,158.0313 Q192.9063,158.1875 193.4688,158.4844 L193.4688,161.2031 Q192.8438,160.625 192.25,160.3594 Q191.6563,160.0781 191.0313,160.0781 Q189.6875,160.0781 189,161.1563 Q188.3125,162.2188 188.3125,164.3125 Q188.3125,166.4063 189,167.4844 Q189.6875,168.5469 191.0313,168.5469 Q191.6563,168.5469 192.25,168.2813 Q192.8438,168 193.4688,167.4219 L193.4688,170.1406 Z " fill="#000000"/><text fill="#000000" font-family="sans-serif" font-size="14" lengthAdjust="spacing" textLength="98" x="204.5" y="169.3467">&lt;time-offset&gt;</text><line style="stroke:#181818;stroke-width:0.5;" x1="176.5" x2="304.5" y1="180.5" y2="180.5"/><line style="stroke:#181818;stroke-width:0.5;" x1="176.5" x2="304.5" y1="188.5" y2="188.5"/></g><!--MD5=[bf5f47cc84b1456115fe8c3c79067b9d]
class <directed-angle>--><g id="elem_&lt;directed-angle&gt;"><rect codeLine="12" fill="#F1F1F1" height="80.5938" id="&lt;directed-angle&gt;" rx="2.5" ry="2.5" style="stroke:#181818;stroke-width:0.5;" width="193" x="324" y="399"/><ellipse cx="355.65" cy="415" fill="#ADD1B2" rx="11" ry="11" style="stroke:#181818;stroke-width:1.0;"/><path d="M358.6188,420.6406 Q358.0406,420.9375 357.4,421.0781 Q356.7594,421.2344 356.0563,421.2344 Q353.5563,421.2344 352.2281,419.5938 Q350.9156,417.9375 350.9156,414.8125 Q350.9156,411.6875 352.2281,410.0313 Q353.5563,408.375 356.0563,408.375 Q356.7594,408.375 357.4,408.5313 Q358.0563,408.6875 358.6188,408.9844 L358.6188,411.7031 Q357.9938,411.125 357.4,410.8594 Q356.8063,410.5781 356.1813,410.5781 Q354.8375,410.5781 354.15,411.6563 Q353.4625,412.7188 353.4625,414.8125 Q353.4625,416.9063 354.15,417.9844 Q354.8375,419.0469 356.1813,419.0469 Q356.8063,419.0469 357.4,418.7813 Q357.9938,418.5 358.6188,417.9219 L358.6188,420.6406 Z " fill="#000000"/><text fill="#000000" font-family="sans-serif" font-size="14" lengthAdjust="spacing" textLength="124" x="373.35" y="419.8467">&lt;directed-angle&gt;</text><line style="stroke:#181818;stroke-width:0.5;" x1="325" x2="516" y1="431" y2="431"/><text fill="#000000" font-family="sans-serif" font-size="14" lengthAdjust="spacing" textLength="181" x="330" y="447.9951">total-seconds : &lt;integer&gt;</text><text fill="#000000" font-family="sans-serif" font-size="14" lengthAdjust="spacing" textLength="60" x="330" y="464.292">direction</text><line style="stroke:#181818;stroke-width:0.5;" x1="325" x2="516" y1="471.5938" y2="471.5938"/></g><!--MD5=[a2ec2339a56fcb0237d82d18a4c42968]
class <latitude>--><g id="elem_&lt;latitude&gt;"><rect codeLine="17" fill="#F1F1F1" height="48" id="&lt;latitude&gt;" rx="2.5" ry="2.5" style="stroke:#181818;stroke-width:0.5;" width="107" x="293" y="290"/><ellipse cx="308" cy="306" fill="#ADD1B2" rx="11" ry="11" style="stroke:#181818;stroke-width:1.0;"/><path d="M310.9688,311.6406 Q310.3906,311.9375 309.75,312.0781 Q309.1094,312.2344 308.4063,312.2344 Q305.9063,312.2344 304.5781,310.5938 Q303.2656,308.9375 303.2656,305.8125 Q303.2656,302.6875 304.5781,301.0313 Q305.9063,299.375 308.4063,299.375 Q309.1094,299.375 309.75,299.5313 Q310.4063,299.6875 310.9688,299.9844 L310.9688,302.7031 Q310.3438,302.125 309.75,301.8594 Q309.1563,301.5781 308.5313,301.5781 Q307.1875,301.5781 306.5,302.6563 Q305.8125,303.7188 305.8125,305.8125 Q305.8125,307.9063 306.5,308.9844 Q307.1875,310.0469 308.5313,310.0469 Q309.1563,310.0469 309.75,309.7813 Q310.3438,309.5 310.9688,308.9219 L310.9688,311.6406 Z " fill="#000000"/><text fill="#000000" font-family="sans-serif" font-size="14" lengthAdjust="spacing" textLength="75" x="322" y="310.8467">&lt;latitude&gt;</text><line style="stroke:#181818;stroke-width:0.5;" x1="294" x2="399" y1="322" y2="322"/><line style="stroke:#181818;stroke-width:0.5;" x1="294" x2="399" y1="330" y2="330"/></g><!--MD5=[8e41317ead168297cef600deff51a9ac]
class <longitude>--><g id="elem_&lt;longitude&gt;"><rect codeLine="18" fill="#F1F1F1" height="48" id="&lt;longitude&gt;" rx="2.5" ry="2.5" style="stroke:#181818;stroke-width:0.5;" width="121" x="435" y="290"/><ellipse cx="450" cy="306" fill="#ADD1B2" rx="11" ry="11" style="stroke:#181818;stroke-width:1.0;"/><path d="M452.9688,311.6406 Q452.3906,311.9375 451.75,312.0781 Q451.1094,312.2344 450.4063,312.2344 Q447.9063,312.2344 446.5781,310.5938 Q445.2656,308.9375 445.2656,305.8125 Q445.2656,302.6875 446.5781,301.0313 Q447.9063,299.375 450.4063,299.375 Q451.1094,299.375 451.75,299.5313 Q452.4063,299.6875 452.9688,299.9844 L452.9688,302.7031 Q452.3438,302.125 451.75,301.8594 Q451.1563,301.5781 450.5313,301.5781 Q449.1875,301.5781 448.5,302.6563 Q447.8125,303.7188 447.8125,305.8125 Q447.8125,307.9063 448.5,308.9844 Q449.1875,310.0469 450.5313,310.0469 Q451.1563,310.0469 451.75,309.7813 Q452.3438,309.5 452.9688,308.9219 L452.9688,311.6406 Z " fill="#000000"/><text fill="#000000" font-family="sans-serif" font-size="14" lengthAdjust="spacing" textLength="89" x="464" y="310.8467">&lt;longitude&gt;</text><line style="stroke:#181818;stroke-width:0.5;" x1="436" x2="555" y1="322" y2="322"/><line style="stroke:#181818;stroke-width:0.5;" x1="436" x2="555" y1="330" y2="330"/></g><!--MD5=[e34761b0d4991b439be72655a3e62392]
class <position>--><g id="elem_&lt;position&gt;"><rect codeLine="23" fill="#F1F1F1" height="48" id="&lt;position&gt;" rx="2.5" ry="2.5" style="stroke:#181818;stroke-width:0.5;" width="111" x="517" y="15"/><ellipse cx="532" cy="31" fill="#ADD1B2" rx="11" ry="11" style="stroke:#181818;stroke-width:1.0;"/><path d="M534.9688,36.6406 Q534.3906,36.9375 533.75,37.0781 Q533.1094,37.2344 532.4063,37.2344 Q529.9063,37.2344 528.5781,35.5938 Q527.2656,33.9375 527.2656,30.8125 Q527.2656,27.6875 528.5781,26.0313 Q529.9063,24.375 532.4063,24.375 Q533.1094,24.375 533.75,24.5313 Q534.4063,24.6875 534.9688,24.9844 L534.9688,27.7031 Q534.3438,27.125 533.75,26.8594 Q533.1563,26.5781 532.5313,26.5781 Q531.1875,26.5781 530.5,27.6563 Q529.8125,28.7188 529.8125,30.8125 Q529.8125,32.9063 530.5,33.9844 Q531.1875,35.0469 532.5313,35.0469 Q533.1563,35.0469 533.75,34.7813 Q534.3438,34.5 534.9688,33.9219 L534.9688,36.6406 Z " fill="#000000"/><text fill="#000000" font-family="sans-serif" font-size="14" lengthAdjust="spacing" textLength="79" x="546" y="35.8467">&lt;position&gt;</text><line style="stroke:#181818;stroke-width:0.5;" x1="518" x2="627" y1="47" y2="47"/><line style="stroke:#181818;stroke-width:0.5;" x1="518" x2="627" y1="55" y2="55"/></g><!--MD5=[d51db7c0bd064ec6d11a901546bf82f7]
class <absolute-position>--><g id="elem_&lt;absolute-position&gt;"><rect codeLine="24" fill="#F1F1F1" height="48" id="&lt;absolute-position&gt;" rx="2.5" ry="2.5" style="stroke:#181818;stroke-width:0.5;" width="176" x="340.5" y="148.5"/><ellipse cx="355.5" cy="164.5" fill="#ADD1B2" rx="11" ry="11" style="stroke:#181818;stroke-width:1.0;"/><path d="M358.4688,170.1406 Q357.8906,170.4375 357.25,170.5781 Q356.6094,170.7344 355.9063,170.7344 Q353.4063,170.7344 352.0781,169.0938 Q350.7656,167.4375 350.7656,164.3125 Q350.7656,161.1875 352.0781,159.5313 Q353.4063,157.875 355.9063,157.875 Q356.6094,157.875 357.25,158.0313 Q357.9063,158.1875 358.4688,158.4844 L358.4688,161.2031 Q357.8438,160.625 357.25,160.3594 Q356.6563,160.0781 356.0313,160.0781 Q354.6875,160.0781 354,161.1563 Q353.3125,162.2188 353.3125,164.3125 Q353.3125,166.4063 354,167.4844 Q354.6875,168.5469 356.0313,168.5469 Q356.6563,168.5469 357.25,168.2813 Q357.8438,168 358.4688,167.4219 L358.4688,170.1406 Z " fill="#000000"/><text fill="#000000" font-family="sans-serif" font-size="14" lengthAdjust="spacing" textLength="144" x="369.5" y="169.3467">&lt;absolute-position&gt;</text><line style="stroke:#181818;stroke-width:0.5;" x1="341.5" x2="515.5" y1="180.5" y2="180.5"/><line style="stroke:#181818;stroke-width:0.5;" x1="341.5" x2="515.5" y1="188.5" y2="188.5"/></g><!--MD5=[d29057efb96cd8b33dcfa2752669b337]
class <relative-position>--><g id="elem_&lt;relative-position&gt;"><rect codeLine="26" fill="#F1F1F1" height="80.5938" id="&lt;relative-position&gt;" rx="2.5" ry="2.5" style="stroke:#181818;stroke-width:0.5;" width="165" x="552" y="132"/><ellipse cx="567" cy="148" fill="#ADD1B2" rx="11" ry="11" style="stroke:#181818;stroke-width:1.0;"/><path d="M569.9688,153.6406 Q569.3906,153.9375 568.75,154.0781 Q568.1094,154.2344 567.4063,154.2344 Q564.9063,154.2344 563.5781,152.5938 Q562.2656,150.9375 562.2656,147.8125 Q562.2656,144.6875 563.5781,143.0313 Q564.9063,141.375 567.4063,141.375 Q568.1094,141.375 568.75,141.5313 Q569.4063,141.6875 569.9688,141.9844 L569.9688,144.7031 Q569.3438,144.125 568.75,143.8594 Q568.1563,143.5781 567.5313,143.5781 Q566.1875,143.5781 565.5,144.6563 Q564.8125,145.7188 564.8125,147.8125 Q564.8125,149.9063 565.5,150.9844 Q566.1875,152.0469 567.5313,152.0469 Q568.1563,152.0469 568.75,151.7813 Q569.3438,151.5 569.9688,150.9219 L569.9688,153.6406 Z " fill="#000000"/><text fill="#000000" font-family="sans-serif" font-size="14" lengthAdjust="spacing" textLength="133" x="581" y="152.8467">&lt;relative-position&gt;</text><line style="stroke:#181818;stroke-width:0.5;" x1="553" x2="716" y1="164" y2="164"/><text fill="#000000" font-family="sans-serif" font-size="14" lengthAdjust="spacing" textLength="59" x="558" y="180.9951">distance</text><text fill="#000000" font-family="sans-serif" font-size="14" lengthAdjust="spacing" textLength="38" x="558" y="197.292">angle</text><line style="stroke:#181818;stroke-width:0.5;" x1="553" x2="716" y1="204.5938" y2="204.5938"/></g><!--MD5=[f18f0798250013e74898edcefb79dc20]
reverse link <time> to <time-of-day>--><g id="link_&lt;time&gt;_&lt;time-of-day&gt;"><path codeLine="9" d="M126.82,88.03 C113.67,108.62 98.92,131.71 88.27,148.38 " fill="none" id="&lt;time&gt;-backto-&lt;time-of-day&gt;" style="stroke:#181818;stroke-width:1.0;"/><polygon fill="none" points="120.93,84.25,137.59,71.16,132.73,91.79,120.93,84.25" style="stroke:#181818;stroke-width:1.0;"/></g><!--MD5=[0e1e1f8981633b49d9a41f4dc9d6aca1]
reverse link <time> to <time-offset>--><g id="link_&lt;time&gt;_&lt;time-offset&gt;"><path codeLine="10" d="M188.01,88.34 C200.96,108.85 215.44,131.79 225.91,148.38 " fill="none" id="&lt;time&gt;-backto-&lt;time-offset&gt;" style="stroke:#181818;stroke-width:1.0;"/><polygon fill="none" points="181.93,91.81,177.17,71.16,193.76,84.34,181.93,91.81" style="stroke:#181818;stroke-width:1.0;"/></g><!--MD5=[c544a37ae80ea1be8646c2546ef1083a]
link <latitude> to <directed-angle>--><g id="link_&lt;latitude&gt;_&lt;directed-angle&gt;"><path codeLine="20" d="M360.42,338.23 C367.76,350.48 377.12,366.11 386.26,381.35 " fill="none" id="&lt;latitude&gt;-to-&lt;directed-angle&gt;" style="stroke:#181818;stroke-width:1.0;"/><polygon fill="none" points="392.47,378.1,396.75,398.86,380.46,385.3,392.47,378.1" style="stroke:#181818;stroke-width:1.0;"/></g><!--MD5=[ea3c440475e39aca1da8ea4556429664]
link <longitude> to <directed-angle>--><g id="link_&lt;longitude&gt;_&lt;directed-angle&gt;"><path codeLine="21" d="M481.39,338.23 C473.95,350.48 464.46,366.11 455.2,381.35 " fill="none" id="&lt;longitude&gt;-to-&lt;directed-angle&gt;" style="stroke:#181818;stroke-width:1.0;"/><polygon fill="none" points="460.94,385.39,444.58,398.86,448.97,378.13,460.94,385.39" style="stroke:#181818;stroke-width:1.0;"/></g><!--MD5=[52ff8a37a6e1768e0ae50641bad5f849]
reverse link <position> to <absolute-position>--><g id="link_&lt;position&gt;_&lt;absolute-position&gt;"><path codeLine="31" d="M532.11,76.88 C507.12,99.71 475.77,128.33 454.14,148.08 " fill="none" id="&lt;position&gt;-backto-&lt;absolute-position&gt;" style="stroke:#181818;stroke-width:1.0;"/><polygon fill="none" points="527.6,71.52,547.09,63.21,537.04,81.86,527.6,71.52" style="stroke:#181818;stroke-width:1.0;"/></g><!--MD5=[af9d58a4b07a1c458ca7b9bc8a66e995]
reverse link <position> to <relative-position>--><g id="link_&lt;position&gt;_&lt;relative-position&gt;"><path codeLine="32" d="M592.02,81.39 C599.6,97.49 608.26,115.84 615.77,131.77 " fill="none" id="&lt;position&gt;-backto-&lt;relative-position&gt;" style="stroke:#181818;stroke-width:1.0;"/><polygon fill="none" points="585.64,84.28,583.44,63.21,598.3,78.31,585.64,84.28" style="stroke:#181818;stroke-width:1.0;"/></g><!--MD5=[11bd31817974b9945f708c83bf4c8dc3]
link <absolute-position> to <latitude>--><g id="link_&lt;absolute-position&gt;_&lt;latitude&gt;"><path codeLine="34" d="M414.96,196.54 C400.6,220.97 377.91,259.56 362.64,285.55 " fill="none" id="&lt;absolute-position&gt;-to-&lt;latitude&gt;" style="stroke:#181818;stroke-width:1.0;"/><polygon fill="#181818" points="360.06,289.93,368.0842,284.2193,362.6051,285.6262,361.1981,280.1471,360.06,289.93" style="stroke:#181818;stroke-width:1.0;"/><text fill="#000000" font-family="sans-serif" font-size="13" lengthAdjust="spacing" textLength="48" x="388.5" y="256.0669">latitude</text></g><!--MD5=[1cab977e7b72a226e13ba05b0944e5b7]
link <absolute-position> to <longitude>--><g id="link_&lt;absolute-position&gt;_&lt;longitude&gt;"><path codeLine="35" d="M439.56,196.54 C451.25,220.87 469.68,259.24 482.16,285.23 " fill="none" id="&lt;absolute-position&gt;-to-&lt;longitude&gt;" style="stroke:#181818;stroke-width:1.0;"/><polygon fill="#181818" points="484.42,289.93,484.1366,280.0852,482.2587,285.4213,476.9226,283.5433,484.42,289.93" style="stroke:#181818;stroke-width:1.0;"/><text fill="#000000" font-family="sans-serif" font-size="13" lengthAdjust="spacing" textLength="59" x="471.5" y="256.0669">longitude</text></g><!--MD5=[6421259662b554fb46c11080dfd01db7]
@startuml

class "<time>" {
      total-seconds : <integer>
}

class "<time-of-day>"
class "<time-offset>"

"<time>" <|- - "<time-of-day>"
"<time>" <|- - "<time-offset>"

class "<directed-angle>" {
      total-seconds : <integer>
      direction
}

class "<latitude>"
class "<longitude>"

"<latitude>"  - -|> "<directed-angle>" 
"<longitude>" - -|> "<directed-angle>" 

class "<position>"
class "<absolute-position>"

class "<relative-position>" {
      distance
      angle
}

"<position>" <|- - "<absolute-position>"
"<position>" <|- - "<relative-position>"

"<absolute-position>" - -> "<latitude>" : latitude
"<absolute-position>" - -> "<longitude>" : longitude

@enduml

PlantUML version 1.2022.2(Sat Mar 05 17:30:19 CET 2022)
(GPL source distribution)
Java Runtime: OpenJDK Runtime Environment
JVM: OpenJDK 64-Bit Server VM
Default Encoding: UTF-8
Language: es
Country: ES
--></g></svg>