<?xml version="1.0" encoding="UTF-8" standalone="no"?><svg xmlns="http://www.w3.org/2000/svg" xmlns:xlink="http://www.w3.org/1999/xlink" contentScriptType="application/ecmascript" contentStyleType="text/css" height="105px" preserveAspectRatio="none" style="width:452px;height:105px;" version="1.1" viewBox="0 0 452 105" width="452px" zoomAndPan="magnify"><defs><filter height="300%" id="fa1w7bt2jklg6" width="300%" x="-1" y="-1"><feGaussianBlur result="blurOut" stdDeviation="2.0"/><feColorMatrix in="blurOut" result="blurOut2" type="matrix" values="0 0 0 0 0 0 0 0 0 0 0 0 0 0 0 0 0 0 .4 0"/><feOffset dx="4.0" dy="4.0" in="blurOut2" result="blurOut3"/><feBlend in="SourceGraphic" in2="blurOut3" mode="normal"/></filter></defs><g><!--MD5=[cde9edb9f75c8cd5fe46729e1fa254c1]
cluster ./src--><polygon fill="#FFFFFF" filter="url(#fa1w7bt2jklg6)" points="14,16,50,16,57,41.0679,430,41.0679,430,93,14,93,14,16" style="stroke: #000000; stroke-width: 1.5;"/><line style="stroke: #000000; stroke-width: 1.5;" x1="14" x2="57" y1="41.0679" y2="41.0679"/><text fill="#000000" font-family="sans-serif" font-size="14" font-weight="bold" lengthAdjust="spacingAndGlyphs" textLength="30" x="18" y="32.9659">./src</text><!--MD5=[9dab63d519d0ead82e2ea30343174e87]
entity sixty--><polygon fill="#FEFECE" filter="url(#fa1w7bt2jklg6)" points="172.5,46,172.5,85.0679,295.5,85.0679,295.5,56,285.5,46,172.5,46" style="stroke: #000000; stroke-width: 1.5;"/><path d="M285.5,46 L285.5,56 L295.5,56 " fill="#FEFECE" style="stroke: #000000; stroke-width: 1.5;"/><text fill="#000000" font-family="sans-serif" font-size="14" lengthAdjust="spacingAndGlyphs" textLength="103" x="182.5" y="70.9659">sixty-unit.dylan</text><!--MD5=[11b1efe42b05059e3bf4c53c8cdc3e2f]
entity time--><polygon fill="#FEFECE" filter="url(#fa1w7bt2jklg6)" points="330.5,46,330.5,85.0679,421.5,85.0679,421.5,56,411.5,46,330.5,46" style="stroke: #000000; stroke-width: 1.5;"/><path d="M411.5,46 L411.5,56 L421.5,56 " fill="#FEFECE" style="stroke: #000000; stroke-width: 1.5;"/><text fill="#000000" font-family="sans-serif" font-size="14" lengthAdjust="spacingAndGlyphs" textLength="71" x="340.5" y="70.9659">time.dylan</text><!--MD5=[0a63089a7a159e85fa1f45c29fb26c81]
entity position--><polygon fill="#FEFECE" filter="url(#fa1w7bt2jklg6)" points="22.5,46,22.5,85.0679,137.5,85.0679,137.5,56,127.5,46,22.5,46" style="stroke: #000000; stroke-width: 1.5;"/><path d="M127.5,46 L127.5,56 L137.5,56 " fill="#FEFECE" style="stroke: #000000; stroke-width: 1.5;"/><text fill="#000000" font-family="sans-serif" font-size="14" lengthAdjust="spacingAndGlyphs" textLength="95" x="32.5" y="70.9659">position.dylan</text><!--MD5=[89dde431de24ab537b3336d5375bcdac]
reverse link sixty to time--><path d="M300.7469,65.5 C310.646,65.5 320.545,65.5 330.4441,65.5 " fill="none" id="sixty&lt;-time" style="stroke: #A80036; stroke-width: 1.0;"/><polygon fill="#A80036" points="295.5703,65.5,304.5703,69.5,300.5703,65.5,304.5703,61.5,295.5703,65.5" style="stroke: #A80036; stroke-width: 1.0;"/><!--MD5=[daa354b5456f0fd68ea74aeb3169ff75]
link position to sixty--><path d="M137.75,65.5 C147.5685,65.5 157.3869,65.5 167.2054,65.5 " fill="none" id="position-&gt;sixty" style="stroke: #A80036; stroke-width: 1.0;"/><polygon fill="#A80036" points="172.3398,65.5,163.3398,61.5,167.3398,65.5,163.3398,69.5,172.3398,65.5" style="stroke: #A80036; stroke-width: 1.0;"/><!--MD5=[b0791b972d263141e8100e04a0153503]
@startuml

folder "./src" {
  file "sixty-unit.dylan" as sixty
  file "time.dylan" as time
  file "position.dylan" as position
}

sixty <- time
position -> sixty

@enduml

PlantUML version 1.2020.09(Sun May 10 12:51:06 CEST 2020)
(GPL source distribution)
Java Runtime: OpenJDK Runtime Environment
JVM: OpenJDK 64-Bit Server VM
Java Version: 11.0.14+9-suse-3.74.2-x8664
Operating System: Linux
Default Encoding: UTF-8
Language: es
Country: ES
--></g></svg>