<?xml version="1.0" encoding="UTF-8" standalone="no"?><svg xmlns="http://www.w3.org/2000/svg" xmlns:xlink="http://www.w3.org/1999/xlink" contentScriptType="application/ecmascript" contentStyleType="text/css" height="204px" preserveAspectRatio="none" style="width:408px;height:204px;" version="1.1" viewBox="0 0 408 204" width="408px" zoomAndPan="magnify"><defs><filter height="300%" id="f1r6fb9u0w6dus" width="300%" x="-1" y="-1"><feGaussianBlur result="blurOut" stdDeviation="2.0"/><feColorMatrix in="blurOut" result="blurOut2" type="matrix" values="0 0 0 0 0 0 0 0 0 0 0 0 0 0 0 0 0 0 .4 0"/><feOffset dx="4.0" dy="4.0" in="blurOut2" result="blurOut3"/><feBlend in="SourceGraphic" in2="blurOut3" mode="normal"/></filter></defs><g><!--MD5=[bea1aa69e02b341d6ee897abd99cc41a]
cluster common_dylan_lib--><polygon fill="#FFFFFF" filter="url(#f1r6fb9u0w6dus)" points="14,16,125,16,132,41.0679,150,41.0679,150,93,14,93,14,16" style="stroke: #000000; stroke-width: 1.5;"/><line style="stroke: #000000; stroke-width: 1.5;" x1="14" x2="132" y1="41.0679" y2="41.0679"/><text fill="#000000" font-family="sans-serif" font-size="14" font-weight="bold" lengthAdjust="spacingAndGlyphs" textLength="105" x="18" y="32.9659">common-dylan</text><!--MD5=[1b0ad08c86447d4a8c843dd59e3dc961]
cluster time_lib--><polygon fill="#FFFFFF" filter="url(#f1r6fb9u0w6dus)" points="177,115,215,115,222,140.0679,251,140.0679,251,192,177,192,177,115" style="stroke: #000000; stroke-width: 1.5;"/><line style="stroke: #000000; stroke-width: 1.5;" x1="177" x2="222" y1="140.0679" y2="140.0679"/><text fill="#000000" font-family="sans-serif" font-size="14" font-weight="bold" lengthAdjust="spacingAndGlyphs" textLength="32" x="181" y="131.9659">time</text><!--MD5=[64818473d47978912c4c63ded7b11808]
cluster io_lib--><polygon fill="#FFFFFF" filter="url(#f1r6fb9u0w6dus)" points="169,16,188,16,195,41.0679,386,41.0679,386,93,169,93,169,16" style="stroke: #000000; stroke-width: 1.5;"/><line style="stroke: #000000; stroke-width: 1.5;" x1="169" x2="195" y1="41.0679" y2="41.0679"/><text fill="#000000" font-family="sans-serif" font-size="14" font-weight="bold" lengthAdjust="spacingAndGlyphs" textLength="13" x="173" y="32.9659">io</text><!--MD5=[8ee1ef0c3ff745c8219c6ed929b27010]
entity common_dylan--><rect fill="#FEFECE" filter="url(#f1r6fb9u0w6dus)" height="39.0679" style="stroke: #A80036; stroke-width: 1.5;" width="120" x="22" y="46"/><rect fill="#FEFECE" height="5" style="stroke: #A80036; stroke-width: 1.5;" width="10" x="17" y="51"/><rect fill="#FEFECE" height="5" style="stroke: #A80036; stroke-width: 1.5;" width="10" x="17" y="75.0679"/><text fill="#000000" font-family="sans-serif" font-size="14" lengthAdjust="spacingAndGlyphs" textLength="100" x="32" y="70.9659">common-dylan</text><!--MD5=[11b1efe42b05059e3bf4c53c8cdc3e2f]
entity time--><rect fill="#FEFECE" filter="url(#f1r6fb9u0w6dus)" height="39.0679" style="stroke: #A80036; stroke-width: 1.5;" width="58" x="185" y="145"/><rect fill="#FEFECE" height="5" style="stroke: #A80036; stroke-width: 1.5;" width="10" x="180" y="150"/><rect fill="#FEFECE" height="5" style="stroke: #A80036; stroke-width: 1.5;" width="10" x="180" y="174.0679"/><text fill="#000000" font-family="sans-serif" font-size="14" lengthAdjust="spacingAndGlyphs" textLength="38" x="195" y="169.9659">+time</text><!--MD5=[210be89e8aac3255074996f6c38a2e65]
entity format_out--><rect fill="#FEFECE" filter="url(#f1r6fb9u0w6dus)" height="39.0679" style="stroke: #A80036; stroke-width: 1.5;" width="92" x="286" y="46"/><rect fill="#FEFECE" height="5" style="stroke: #A80036; stroke-width: 1.5;" width="10" x="281" y="51"/><rect fill="#FEFECE" height="5" style="stroke: #A80036; stroke-width: 1.5;" width="10" x="281" y="75.0679"/><text fill="#000000" font-family="sans-serif" font-size="14" lengthAdjust="spacingAndGlyphs" textLength="72" x="296" y="70.9659">format-out</text><!--MD5=[36316dd4f5adc7ae2cc0238c51f520f0]
entity streams--><rect fill="#FEFECE" filter="url(#f1r6fb9u0w6dus)" height="39.0679" style="stroke: #A80036; stroke-width: 1.5;" width="74" x="177" y="46"/><rect fill="#FEFECE" height="5" style="stroke: #A80036; stroke-width: 1.5;" width="10" x="172" y="51"/><rect fill="#FEFECE" height="5" style="stroke: #A80036; stroke-width: 1.5;" width="10" x="172" y="75.0679"/><text fill="#000000" font-family="sans-serif" font-size="14" lengthAdjust="spacingAndGlyphs" textLength="54" x="187" y="70.9659">streams</text><!--MD5=[c87424ccb05b2f065c795908adaa3e3d]
reverse link common_dylan to time--><path d="M112.2506,88.1879 C135.1253,105.344 166.2052,128.6539 187.9752,144.9814 " fill="none" id="common_dylan&lt;-time" style="stroke: #A80036; stroke-width: 1.0;"/><polygon fill="#A80036" points="108.079,85.0592,112.8791,93.6591,112.0791,88.0591,117.679,87.259,108.079,85.0592" style="stroke: #A80036; stroke-width: 1.0;"/><!--MD5=[44b72715cb9d1468923d9540f3ff4e69]
reverse link format_out to time--><path d="M304.7029,88.4018 C284.2788,105.5373 256.6449,128.7216 237.2646,144.9814 " fill="none" id="format_out&lt;-time" style="stroke: #A80036; stroke-width: 1.0;"/><polygon fill="#A80036" points="308.687,85.0592,299.2213,87.7795,304.8566,88.2729,304.3632,93.9082,308.687,85.0592" style="stroke: #A80036; stroke-width: 1.0;"/><!--MD5=[36568112bee86de6324756ddb804c7e3]
reverse link streams to time--><path d="M214,90.135 C214,107.0752 214,129.2636 214,144.9814 " fill="none" id="streams&lt;-time" style="stroke: #A80036; stroke-width: 1.0;"/><polygon fill="#A80036" points="214,85.0592,210,94.0592,214,90.0592,218,94.0592,214,85.0592" style="stroke: #A80036; stroke-width: 1.0;"/><!--MD5=[06898169fd901148c59f7563d2e39103]
@startuml

folder "common-dylan" as common_dylan_lib {
  [common-dylan] as common_dylan
}

folder "time" as time_lib { 
  [+time] as time
}

folder "io"  as io_lib {
  [format-out] as format_out
  [streams]
} 

common_dylan <- - time
format_out   <- - time 
streams      <- - time

@enduml

PlantUML version 1.2020.09(Sun May 10 12:51:06 CEST 2020)
(GPL source distribution)
Java Runtime: OpenJDK Runtime Environment
JVM: OpenJDK 64-Bit Server VM
Java Version: 11.0.14+9-suse-3.74.2-x8664
Operating System: Linux
Default Encoding: UTF-8
Language: es
Country: ES
--></g></svg>