<?xml version="1.0" encoding="UTF-8" standalone="no"?>
<!DOCTYPE svg PUBLIC "-//W3C//DTD SVG 1.1//EN"
 "http://www.w3.org/Graphics/SVG/1.1/DTD/svg11.dtd">
<!-- Generated by graphviz version 2.49.3 (0)
 -->
<!-- Title: G Pages: 1 -->
<svg width="786pt" height="441pt"
 viewBox="0.00 0.00 785.50 441.00" xmlns="http://www.w3.org/2000/svg" xmlns:xlink="http://www.w3.org/1999/xlink">
<g id="graph0" class="graph" transform="scale(1 1) rotate(0) translate(4 437)">
<title>G</title>
<polygon fill="white" stroke="transparent" points="-4,4 -4,-437 781.5,-437 781.5,4 -4,4"/>
<!-- &lt;object&gt; -->
<g id="node1" class="node">
<title>&lt;object&gt;</title>
<polygon fill="#f7f7f7" stroke="#f7f7f7" points="470.5,-433 387.5,-433 387.5,-397 470.5,-397 470.5,-433"/>
<text text-anchor="middle" x="429" y="-411.3" font-family="Courier New" font-size="14.00">&lt;object&gt;</text>
</g>
<!-- &lt;sixty&#45;unit&gt; -->
<g id="node2" class="node">
<title>&lt;sixty&#45;unit&gt;</title>
<polygon fill="#f7f7f7" stroke="#f7f7f7" points="416,-361 300,-361 300,-323 416,-323 416,-361"/>
<text text-anchor="middle" x="358" y="-345.8" font-family="Courier New" font-size="14.00">a</text>
<text text-anchor="middle" x="358" y="-330.8" font-family="Courier New" font-size="14.00">&lt;sixty&#45;unit&gt;</text>
</g>
<!-- &lt;object&gt;&#45;&gt;&lt;sixty&#45;unit&gt; -->
<g id="edge1" class="edge">
<title>&lt;object&gt;&#45;&gt;&lt;sixty&#45;unit&gt;</title>
<path fill="none" stroke="black" d="M411.81,-396.81C403.26,-388.26 392.76,-377.76 383.31,-368.31"/>
<polygon fill="black" stroke="black" points="385.57,-365.62 376.02,-361.02 380.62,-370.57 385.57,-365.62"/>
</g>
<!-- &lt;position&gt; -->
<g id="node9" class="node">
<title>&lt;position&gt;</title>
<polygon fill="#f7f7f7" stroke="#f7f7f7" points="549.5,-361 450.5,-361 450.5,-323 549.5,-323 549.5,-361"/>
<text text-anchor="middle" x="500" y="-345.8" font-family="Courier New" font-size="14.00">a</text>
<text text-anchor="middle" x="500" y="-330.8" font-family="Courier New" font-size="14.00">&lt;position&gt;</text>
</g>
<!-- &lt;object&gt;&#45;&gt;&lt;position&gt; -->
<g id="edge2" class="edge">
<title>&lt;object&gt;&#45;&gt;&lt;position&gt;</title>
<path fill="none" stroke="black" d="M446.19,-396.81C454.74,-388.26 465.24,-377.76 474.69,-368.31"/>
<polygon fill="black" stroke="black" points="477.38,-370.57 481.98,-361.02 472.43,-365.62 477.38,-370.57"/>
</g>
<!-- &lt;time&gt; -->
<g id="node3" class="node">
<title>&lt;time&gt;</title>
<polygon fill="#f7f7f7" stroke="#f7f7f7" points="237,-287 171,-287 171,-249 237,-249 237,-287"/>
<text text-anchor="middle" x="204" y="-271.8" font-family="Courier New" font-size="14.00">a</text>
<text text-anchor="middle" x="204" y="-256.8" font-family="Courier New" font-size="14.00">&lt;time&gt;</text>
</g>
<!-- &lt;sixty&#45;unit&gt;&#45;&gt;&lt;time&gt; -->
<g id="edge3" class="edge">
<title>&lt;sixty&#45;unit&gt;&#45;&gt;&lt;time&gt;</title>
<path fill="none" stroke="black" d="M319.14,-322.83C296.9,-312.43 268.98,-299.38 246.2,-288.73"/>
<polygon fill="black" stroke="black" points="247.65,-285.54 237.11,-284.48 244.68,-291.88 247.65,-285.54"/>
</g>
<!-- &lt;angle&gt; -->
<g id="node4" class="node">
<title>&lt;angle&gt;</title>
<polygon fill="#f7f7f7" stroke="#f7f7f7" points="395,-287 321,-287 321,-249 395,-249 395,-287"/>
<text text-anchor="middle" x="358" y="-271.8" font-family="Courier New" font-size="14.00">a</text>
<text text-anchor="middle" x="358" y="-256.8" font-family="Courier New" font-size="14.00">&lt;angle&gt;</text>
</g>
<!-- &lt;sixty&#45;unit&gt;&#45;&gt;&lt;angle&gt; -->
<g id="edge4" class="edge">
<title>&lt;sixty&#45;unit&gt;&#45;&gt;&lt;angle&gt;</title>
<path fill="none" stroke="black" d="M358,-322.83C358,-315.13 358,-305.97 358,-297.42"/>
<polygon fill="black" stroke="black" points="361.5,-297.41 358,-287.41 354.5,-297.41 361.5,-297.41"/>
</g>
<!-- &lt;time&#45;of&#45;day&gt; -->
<g id="node5" class="node">
<title>&lt;time&#45;of&#45;day&gt;</title>
<polygon fill="#f7f7f7" stroke="#f7f7f7" points="124,-213 0,-213 0,-175 124,-175 124,-213"/>
<text text-anchor="middle" x="62" y="-197.8" font-family="Courier New" font-size="14.00">c</text>
<text text-anchor="middle" x="62" y="-182.8" font-family="Courier New" font-size="14.00">&lt;time&#45;of&#45;day&gt;</text>
</g>
<!-- &lt;time&gt;&#45;&gt;&lt;time&#45;of&#45;day&gt; -->
<g id="edge5" class="edge">
<title>&lt;time&gt;&#45;&gt;&lt;time&#45;of&#45;day&gt;</title>
<path fill="none" stroke="black" d="M170.71,-250.12C151.57,-240.42 127.28,-228.1 106.52,-217.58"/>
<polygon fill="black" stroke="black" points="108.07,-214.43 97.57,-213.03 104.9,-220.68 108.07,-214.43"/>
</g>
<!-- &lt;time&#45;offset&gt; -->
<g id="node6" class="node">
<title>&lt;time&#45;offset&gt;</title>
<polygon fill="#f7f7f7" stroke="#f7f7f7" points="266,-213 142,-213 142,-175 266,-175 266,-213"/>
<text text-anchor="middle" x="204" y="-197.8" font-family="Courier New" font-size="14.00">c</text>
<text text-anchor="middle" x="204" y="-182.8" font-family="Courier New" font-size="14.00">&lt;time&#45;offset&gt;</text>
</g>
<!-- &lt;time&gt;&#45;&gt;&lt;time&#45;offset&gt; -->
<g id="edge6" class="edge">
<title>&lt;time&gt;&#45;&gt;&lt;time&#45;offset&gt;</title>
<path fill="none" stroke="black" d="M204,-248.83C204,-241.13 204,-231.97 204,-223.42"/>
<polygon fill="black" stroke="black" points="207.5,-223.41 204,-213.41 200.5,-223.41 207.5,-223.41"/>
</g>
<!-- &lt;directed&#45;angle&gt; -->
<g id="node7" class="node">
<title>&lt;directed&#45;angle&gt;</title>
<polygon fill="#f7f7f7" stroke="#f7f7f7" points="432.5,-213 283.5,-213 283.5,-175 432.5,-175 432.5,-213"/>
<text text-anchor="middle" x="358" y="-197.8" font-family="Courier New" font-size="14.00">a</text>
<text text-anchor="middle" x="358" y="-182.8" font-family="Courier New" font-size="14.00">&lt;directed&#45;angle&gt;</text>
</g>
<!-- &lt;angle&gt;&#45;&gt;&lt;directed&#45;angle&gt; -->
<g id="edge7" class="edge">
<title>&lt;angle&gt;&#45;&gt;&lt;directed&#45;angle&gt;</title>
<path fill="none" stroke="black" d="M358,-248.83C358,-241.13 358,-231.97 358,-223.42"/>
<polygon fill="black" stroke="black" points="361.5,-223.41 358,-213.41 354.5,-223.41 361.5,-223.41"/>
</g>
<!-- &lt;relative&#45;angle&gt; -->
<g id="node8" class="node">
<title>&lt;relative&#45;angle&gt;</title>
<polygon fill="#f7f7f7" stroke="#f7f7f7" points="599.5,-213 450.5,-213 450.5,-175 599.5,-175 599.5,-213"/>
<text text-anchor="middle" x="525" y="-197.8" font-family="Courier New" font-size="14.00">c</text>
<text text-anchor="middle" x="525" y="-182.8" font-family="Courier New" font-size="14.00">&lt;relative&#45;angle&gt;</text>
</g>
<!-- &lt;angle&gt;&#45;&gt;&lt;relative&#45;angle&gt; -->
<g id="edge8" class="edge">
<title>&lt;angle&gt;&#45;&gt;&lt;relative&#45;angle&gt;</title>
<path fill="none" stroke="black" d="M395.06,-251.02C418.15,-241.07 448.19,-228.11 473.57,-217.17"/>
<polygon fill="black" stroke="black" points="475.25,-220.26 483.04,-213.09 472.48,-213.83 475.25,-220.26"/>
</g>
<!-- &lt;latitude&gt; -->
<g id="node12" class="node">
<title>&lt;latitude&gt;</title>
<polygon fill="#f7f7f7" stroke="#f7f7f7" points="346.5,-139 247.5,-139 247.5,-101 346.5,-101 346.5,-139"/>
<text text-anchor="middle" x="297" y="-123.8" font-family="Courier New" font-size="14.00">c</text>
<text text-anchor="middle" x="297" y="-108.8" font-family="Courier New" font-size="14.00">&lt;latitude&gt;</text>
</g>
<!-- &lt;directed&#45;angle&gt;&#45;&gt;&lt;latitude&gt; -->
<g id="edge9" class="edge">
<title>&lt;directed&#45;angle&gt;&#45;&gt;&lt;latitude&gt;</title>
<path fill="none" stroke="black" d="M342.61,-174.83C335.51,-166.45 326.95,-156.35 319.18,-147.17"/>
<polygon fill="black" stroke="black" points="321.73,-144.78 312.6,-139.41 316.39,-149.31 321.73,-144.78"/>
</g>
<!-- &lt;longitude&gt; -->
<g id="node13" class="node">
<title>&lt;longitude&gt;</title>
<polygon fill="#f7f7f7" stroke="#f7f7f7" points="471.5,-139 364.5,-139 364.5,-101 471.5,-101 471.5,-139"/>
<text text-anchor="middle" x="418" y="-123.8" font-family="Courier New" font-size="14.00">c</text>
<text text-anchor="middle" x="418" y="-108.8" font-family="Courier New" font-size="14.00">&lt;longitude&gt;</text>
</g>
<!-- &lt;directed&#45;angle&gt;&#45;&gt;&lt;longitude&gt; -->
<g id="edge10" class="edge">
<title>&lt;directed&#45;angle&gt;&#45;&gt;&lt;longitude&gt;</title>
<path fill="none" stroke="black" d="M373.14,-174.83C380.12,-166.45 388.54,-156.35 396.19,-147.17"/>
<polygon fill="black" stroke="black" points="398.94,-149.34 402.66,-139.41 393.56,-144.85 398.94,-149.34"/>
</g>
<!-- &lt;absolute&#45;position&gt; -->
<g id="node10" class="node">
<title>&lt;absolute&#45;position&gt;</title>
<polygon fill="#f7f7f7" stroke="#f7f7f7" points="586.5,-287 413.5,-287 413.5,-249 586.5,-249 586.5,-287"/>
<text text-anchor="middle" x="500" y="-271.8" font-family="Courier New" font-size="14.00">c</text>
<text text-anchor="middle" x="500" y="-256.8" font-family="Courier New" font-size="14.00">&lt;absolute&#45;position&gt;</text>
</g>
<!-- &lt;position&gt;&#45;&gt;&lt;absolute&#45;position&gt; -->
<g id="edge11" class="edge">
<title>&lt;position&gt;&#45;&gt;&lt;absolute&#45;position&gt;</title>
<path fill="none" stroke="black" d="M500,-322.83C500,-315.13 500,-305.97 500,-297.42"/>
<polygon fill="black" stroke="black" points="503.5,-297.41 500,-287.41 496.5,-297.41 503.5,-297.41"/>
</g>
<!-- &lt;relative&#45;position&gt; -->
<g id="node11" class="node">
<title>&lt;relative&#45;position&gt;</title>
<polygon fill="#f7f7f7" stroke="#f7f7f7" points="777.5,-287 604.5,-287 604.5,-249 777.5,-249 777.5,-287"/>
<text text-anchor="middle" x="691" y="-271.8" font-family="Courier New" font-size="14.00">c</text>
<text text-anchor="middle" x="691" y="-256.8" font-family="Courier New" font-size="14.00">&lt;relative&#45;position&gt;</text>
</g>
<!-- &lt;position&gt;&#45;&gt;&lt;relative&#45;position&gt; -->
<g id="edge12" class="edge">
<title>&lt;position&gt;&#45;&gt;&lt;relative&#45;position&gt;</title>
<path fill="none" stroke="black" d="M548.2,-322.83C574.2,-313.03 606.45,-300.87 633.73,-290.59"/>
<polygon fill="black" stroke="black" points="635.03,-293.84 643.15,-287.04 632.56,-287.29 635.03,-293.84"/>
</g>
<!-- Legend -->
<g id="node14" class="node">
<title>Legend</title>
<polygon fill="#f7f7f7" stroke="transparent" points="354.5,-65 239.5,-65 239.5,0 354.5,0 354.5,-65"/>
<text text-anchor="start" x="244" y="-50.3" font-family="Courier New" font-weight="bold" font-size="14.00">Abrv</text>
<text text-anchor="start" x="300.5" y="-50.3" font-family="Courier New" font-weight="bold" font-size="14.00">Desc</text>
<text text-anchor="start" x="256.5" y="-28.3" font-family="Courier New" font-size="14.00">a</text>
<text text-anchor="start" x="284" y="-28.3" font-family="Courier New" font-size="14.00">abstract</text>
<text text-anchor="start" x="256.5" y="-7.3" font-family="Courier New" font-size="14.00">c</text>
<text text-anchor="start" x="284" y="-7.3" font-family="Courier New" font-size="14.00">concrete</text>
</g>
</g>
</svg>
