<?xml version="1.0" encoding="UTF-8" standalone="no"?><svg xmlns="http://www.w3.org/2000/svg" xmlns:xlink="http://www.w3.org/1999/xlink" contentScriptType="application/ecmascript" contentStyleType="text/css" height="551px" preserveAspectRatio="none" style="width:829px;height:551px;" version="1.1" viewBox="0 0 829 551" width="829px" zoomAndPan="magnify"><defs><filter height="300%" id="f16z5oaxtksscu" width="300%" x="-1" y="-1"><feGaussianBlur result="blurOut" stdDeviation="2.0"/><feColorMatrix in="blurOut" result="blurOut2" type="matrix" values="0 0 0 0 0 0 0 0 0 0 0 0 0 0 0 0 0 0 .4 0"/><feOffset dx="4.0" dy="4.0" in="blurOut2" result="blurOut3"/><feBlend in="SourceGraphic" in2="blurOut3" mode="normal"/></filter></defs><g><!--MD5=[0082b46695ab9a4236ee6e2292a56a91]
class <object>--><rect fill="#FEFECE" filter="url(#f16z5oaxtksscu)" height="48" id="&lt;object&gt;" style="stroke: #A80036; stroke-width: 1.5;" width="91" x="422" y="8"/><ellipse cx="437" cy="24" fill="#ADD1B2" rx="11" ry="11" style="stroke: #A80036; stroke-width: 1.0;"/><path d="M439.9688,29.6406 Q439.3906,29.9375 438.75,30.0781 Q438.1094,30.2344 437.4063,30.2344 Q434.9063,30.2344 433.5781,28.5938 Q432.2656,26.9375 432.2656,23.8125 Q432.2656,20.6875 433.5781,19.0313 Q434.9063,17.375 437.4063,17.375 Q438.1094,17.375 438.75,17.5313 Q439.4063,17.6875 439.9688,17.9844 L439.9688,20.7031 Q439.3438,20.125 438.75,19.8594 Q438.1563,19.5781 437.5313,19.5781 Q436.1875,19.5781 435.5,20.6563 Q434.8125,21.7188 434.8125,23.8125 Q434.8125,25.9063 435.5,26.9844 Q436.1875,28.0469 437.5313,28.0469 Q438.1563,28.0469 438.75,27.7813 Q439.3438,27.5 439.9688,26.9219 L439.9688,29.6406 Z "/><text fill="#000000" font-family="sans-serif" font-size="12" lengthAdjust="spacingAndGlyphs" textLength="59" x="451" y="28.1543">&lt;object&gt;</text><line style="stroke: #A80036; stroke-width: 1.5;" x1="423" x2="512" y1="40" y2="40"/><line style="stroke: #A80036; stroke-width: 1.5;" x1="423" x2="512" y1="48" y2="48"/><!--MD5=[b2b917591af49fe4ba5dff5b4a6b4397]
class <sixty-unit>--><rect fill="#FEFECE" filter="url(#f16z5oaxtksscu)" height="60.8047" id="&lt;sixty-unit&gt;" style="stroke: #A80036; stroke-width: 1.5;" width="159" x="306" y="116"/><ellipse cx="343.95" cy="132" fill="#A9DCDF" rx="11" ry="11" style="stroke: #A80036; stroke-width: 1.0;"/><path d="M344.0594,127.3438 L342.9031,132.4219 L345.2313,132.4219 L344.0594,127.3438 Z M342.575,125.1094 L345.5594,125.1094 L348.9188,137.5 L346.4656,137.5 L345.7,134.4375 L342.4188,134.4375 L341.6688,137.5 L339.2313,137.5 L342.575,125.1094 Z "/><text fill="#000000" font-family="sans-serif" font-size="12" font-style="italic" lengthAdjust="spacingAndGlyphs" textLength="76" x="363.05" y="136.1543">&lt;sixty-unit&gt;</text><line style="stroke: #A80036; stroke-width: 1.5;" x1="307" x2="464" y1="148" y2="148"/><text fill="#000000" font-family="sans-serif" font-size="11" lengthAdjust="spacingAndGlyphs" textLength="147" x="312" y="162.2104">total-seconds : &lt;integer&gt;</text><line style="stroke: #A80036; stroke-width: 1.5;" x1="307" x2="464" y1="168.8047" y2="168.8047"/><!--MD5=[d7496b5426f31d7a637df3ab9e29fecc]
class <time>--><rect fill="#FEFECE" filter="url(#f16z5oaxtksscu)" height="48" id="&lt;time&gt;" style="stroke: #A80036; stroke-width: 1.5;" width="79" x="182" y="250"/><ellipse cx="197" cy="266" fill="#A9DCDF" rx="11" ry="11" style="stroke: #A80036; stroke-width: 1.0;"/><path d="M197.1094,261.3438 L195.9531,266.4219 L198.2813,266.4219 L197.1094,261.3438 Z M195.625,259.1094 L198.6094,259.1094 L201.9688,271.5 L199.5156,271.5 L198.75,268.4375 L195.4688,268.4375 L194.7188,271.5 L192.2813,271.5 L195.625,259.1094 Z "/><text fill="#000000" font-family="sans-serif" font-size="12" font-style="italic" lengthAdjust="spacingAndGlyphs" textLength="47" x="211" y="270.1543">&lt;time&gt;</text><line style="stroke: #A80036; stroke-width: 1.5;" x1="183" x2="260" y1="282" y2="282"/><line style="stroke: #A80036; stroke-width: 1.5;" x1="183" x2="260" y1="290" y2="290"/><!--MD5=[969e5e072e5a5f50cb0447b26ed85229]
class <angle>--><rect fill="#FEFECE" filter="url(#f16z5oaxtksscu)" height="48" id="&lt;angle&gt;" style="stroke: #A80036; stroke-width: 1.5;" width="87" x="344" y="250"/><ellipse cx="359" cy="266" fill="#A9DCDF" rx="11" ry="11" style="stroke: #A80036; stroke-width: 1.0;"/><path d="M359.1094,261.3438 L357.9531,266.4219 L360.2813,266.4219 L359.1094,261.3438 Z M357.625,259.1094 L360.6094,259.1094 L363.9688,271.5 L361.5156,271.5 L360.75,268.4375 L357.4688,268.4375 L356.7188,271.5 L354.2813,271.5 L357.625,259.1094 Z "/><text fill="#000000" font-family="sans-serif" font-size="12" font-style="italic" lengthAdjust="spacingAndGlyphs" textLength="55" x="373" y="270.1543">&lt;angle&gt;</text><line style="stroke: #A80036; stroke-width: 1.5;" x1="345" x2="430" y1="282" y2="282"/><line style="stroke: #A80036; stroke-width: 1.5;" x1="345" x2="430" y1="290" y2="290"/><!--MD5=[77ae869fbe714cad66a7c6ddf5b69c80]
class <time-of-day>--><rect fill="#FEFECE" filter="url(#f16z5oaxtksscu)" height="48" id="&lt;time-of-day&gt;" style="stroke: #A80036; stroke-width: 1.5;" width="121" x="6" y="377.5"/><ellipse cx="21" cy="393.5" fill="#ADD1B2" rx="11" ry="11" style="stroke: #A80036; stroke-width: 1.0;"/><path d="M23.9688,399.1406 Q23.3906,399.4375 22.75,399.5781 Q22.1094,399.7344 21.4063,399.7344 Q18.9063,399.7344 17.5781,398.0938 Q16.2656,396.4375 16.2656,393.3125 Q16.2656,390.1875 17.5781,388.5313 Q18.9063,386.875 21.4063,386.875 Q22.1094,386.875 22.75,387.0313 Q23.4063,387.1875 23.9688,387.4844 L23.9688,390.2031 Q23.3438,389.625 22.75,389.3594 Q22.1563,389.0781 21.5313,389.0781 Q20.1875,389.0781 19.5,390.1563 Q18.8125,391.2188 18.8125,393.3125 Q18.8125,395.4063 19.5,396.4844 Q20.1875,397.5469 21.5313,397.5469 Q22.1563,397.5469 22.75,397.2813 Q23.3438,397 23.9688,396.4219 L23.9688,399.1406 Z "/><text fill="#000000" font-family="sans-serif" font-size="12" lengthAdjust="spacingAndGlyphs" textLength="89" x="35" y="397.6543">&lt;time-of-day&gt;</text><line style="stroke: #A80036; stroke-width: 1.5;" x1="7" x2="126" y1="409.5" y2="409.5"/><line style="stroke: #A80036; stroke-width: 1.5;" x1="7" x2="126" y1="417.5" y2="417.5"/><!--MD5=[a3c3d24e6fe02b4bc23145b671fbd87b]
class <time-offset>--><rect fill="#FEFECE" filter="url(#f16z5oaxtksscu)" height="48" id="&lt;time-offset&gt;" style="stroke: #A80036; stroke-width: 1.5;" width="119" x="162" y="377.5"/><ellipse cx="177" cy="393.5" fill="#ADD1B2" rx="11" ry="11" style="stroke: #A80036; stroke-width: 1.0;"/><path d="M179.9688,399.1406 Q179.3906,399.4375 178.75,399.5781 Q178.1094,399.7344 177.4063,399.7344 Q174.9063,399.7344 173.5781,398.0938 Q172.2656,396.4375 172.2656,393.3125 Q172.2656,390.1875 173.5781,388.5313 Q174.9063,386.875 177.4063,386.875 Q178.1094,386.875 178.75,387.0313 Q179.4063,387.1875 179.9688,387.4844 L179.9688,390.2031 Q179.3438,389.625 178.75,389.3594 Q178.1563,389.0781 177.5313,389.0781 Q176.1875,389.0781 175.5,390.1563 Q174.8125,391.2188 174.8125,393.3125 Q174.8125,395.4063 175.5,396.4844 Q176.1875,397.5469 177.5313,397.5469 Q178.1563,397.5469 178.75,397.2813 Q179.3438,397 179.9688,396.4219 L179.9688,399.1406 Z "/><text fill="#000000" font-family="sans-serif" font-size="12" lengthAdjust="spacingAndGlyphs" textLength="87" x="191" y="397.6543">&lt;time-offset&gt;</text><line style="stroke: #A80036; stroke-width: 1.5;" x1="163" x2="280" y1="409.5" y2="409.5"/><line style="stroke: #A80036; stroke-width: 1.5;" x1="163" x2="280" y1="417.5" y2="417.5"/><!--MD5=[bf5f47cc84b1456115fe8c3c79067b9d]
class <directed-angle>--><rect fill="#FEFECE" filter="url(#f16z5oaxtksscu)" height="60.8047" id="&lt;directed-angle&gt;" style="stroke: #A80036; stroke-width: 1.5;" width="143" x="316" y="371"/><ellipse cx="331" cy="387" fill="#A9DCDF" rx="11" ry="11" style="stroke: #A80036; stroke-width: 1.0;"/><path d="M331.1094,382.3438 L329.9531,387.4219 L332.2813,387.4219 L331.1094,382.3438 Z M329.625,380.1094 L332.6094,380.1094 L335.9688,392.5 L333.5156,392.5 L332.75,389.4375 L329.4688,389.4375 L328.7188,392.5 L326.2813,392.5 L329.625,380.1094 Z "/><text fill="#000000" font-family="sans-serif" font-size="12" font-style="italic" lengthAdjust="spacingAndGlyphs" textLength="111" x="345" y="391.1543">&lt;directed-angle&gt;</text><line style="stroke: #A80036; stroke-width: 1.5;" x1="317" x2="458" y1="403" y2="403"/><text fill="#000000" font-family="sans-serif" font-size="11" lengthAdjust="spacingAndGlyphs" textLength="120" x="322" y="417.2104">direction : &lt;symbol&gt;</text><line style="stroke: #A80036; stroke-width: 1.5;" x1="317" x2="458" y1="423.8047" y2="423.8047"/><!--MD5=[49c666db2c3455425d7a472d5461a439]
class <relative-angle>--><rect fill="#FEFECE" filter="url(#f16z5oaxtksscu)" height="48" id="&lt;relative-angle&gt;" style="stroke: #A80036; stroke-width: 1.5;" width="137" x="494" y="377.5"/><ellipse cx="509" cy="393.5" fill="#ADD1B2" rx="11" ry="11" style="stroke: #A80036; stroke-width: 1.0;"/><path d="M511.9688,399.1406 Q511.3906,399.4375 510.75,399.5781 Q510.1094,399.7344 509.4063,399.7344 Q506.9063,399.7344 505.5781,398.0938 Q504.2656,396.4375 504.2656,393.3125 Q504.2656,390.1875 505.5781,388.5313 Q506.9063,386.875 509.4063,386.875 Q510.1094,386.875 510.75,387.0313 Q511.4063,387.1875 511.9688,387.4844 L511.9688,390.2031 Q511.3438,389.625 510.75,389.3594 Q510.1563,389.0781 509.5313,389.0781 Q508.1875,389.0781 507.5,390.1563 Q506.8125,391.2188 506.8125,393.3125 Q506.8125,395.4063 507.5,396.4844 Q508.1875,397.5469 509.5313,397.5469 Q510.1563,397.5469 510.75,397.2813 Q511.3438,397 511.9688,396.4219 L511.9688,399.1406 Z "/><text fill="#000000" font-family="sans-serif" font-size="12" lengthAdjust="spacingAndGlyphs" textLength="105" x="523" y="397.6543">&lt;relative-angle&gt;</text><line style="stroke: #A80036; stroke-width: 1.5;" x1="495" x2="630" y1="409.5" y2="409.5"/><line style="stroke: #A80036; stroke-width: 1.5;" x1="495" x2="630" y1="417.5" y2="417.5"/><!--MD5=[e34761b0d4991b439be72655a3e62392]
class <position>--><rect fill="#FEFECE" filter="url(#f16z5oaxtksscu)" height="48" id="&lt;position&gt;" style="stroke: #A80036; stroke-width: 1.5;" width="101" x="500" y="122.5"/><ellipse cx="515" cy="138.5" fill="#A9DCDF" rx="11" ry="11" style="stroke: #A80036; stroke-width: 1.0;"/><path d="M515.1094,133.8438 L513.9531,138.9219 L516.2813,138.9219 L515.1094,133.8438 Z M513.625,131.6094 L516.6094,131.6094 L519.9688,144 L517.5156,144 L516.75,140.9375 L513.4688,140.9375 L512.7188,144 L510.2813,144 L513.625,131.6094 Z "/><text fill="#000000" font-family="sans-serif" font-size="12" font-style="italic" lengthAdjust="spacingAndGlyphs" textLength="69" x="529" y="142.6543">&lt;position&gt;</text><line style="stroke: #A80036; stroke-width: 1.5;" x1="501" x2="600" y1="154.5" y2="154.5"/><line style="stroke: #A80036; stroke-width: 1.5;" x1="501" x2="600" y1="162.5" y2="162.5"/><!--MD5=[d51db7c0bd064ec6d11a901546bf82f7]
class <absolute-position>--><rect fill="#FEFECE" filter="url(#f16z5oaxtksscu)" height="73.6094" id="&lt;absolute-position&gt;" style="stroke: #A80036; stroke-width: 1.5;" width="161" x="469" y="237"/><ellipse cx="484" cy="253" fill="#ADD1B2" rx="11" ry="11" style="stroke: #A80036; stroke-width: 1.0;"/><path d="M486.9688,258.6406 Q486.3906,258.9375 485.75,259.0781 Q485.1094,259.2344 484.4063,259.2344 Q481.9063,259.2344 480.5781,257.5938 Q479.2656,255.9375 479.2656,252.8125 Q479.2656,249.6875 480.5781,248.0313 Q481.9063,246.375 484.4063,246.375 Q485.1094,246.375 485.75,246.5313 Q486.4063,246.6875 486.9688,246.9844 L486.9688,249.7031 Q486.3438,249.125 485.75,248.8594 Q485.1563,248.5781 484.5313,248.5781 Q483.1875,248.5781 482.5,249.6563 Q481.8125,250.7188 481.8125,252.8125 Q481.8125,254.9063 482.5,255.9844 Q483.1875,257.0469 484.5313,257.0469 Q485.1563,257.0469 485.75,256.7813 Q486.3438,256.5 486.9688,255.9219 L486.9688,258.6406 Z "/><text fill="#000000" font-family="sans-serif" font-size="12" lengthAdjust="spacingAndGlyphs" textLength="129" x="498" y="257.1543">&lt;absolute-position&gt;</text><line style="stroke: #A80036; stroke-width: 1.5;" x1="470" x2="629" y1="269" y2="269"/><text fill="#000000" font-family="sans-serif" font-size="11" lengthAdjust="spacingAndGlyphs" textLength="114" x="475" y="283.2104">latitude : &lt;latitude&gt;</text><text fill="#000000" font-family="sans-serif" font-size="11" lengthAdjust="spacingAndGlyphs" textLength="134" x="475" y="296.0151">longitude : &lt;longitude&gt;</text><line style="stroke: #A80036; stroke-width: 1.5;" x1="470" x2="629" y1="302.6094" y2="302.6094"/><!--MD5=[d29057efb96cd8b33dcfa2752669b337]
class <relative-position>--><rect fill="#FEFECE" filter="url(#f16z5oaxtksscu)" height="73.6094" id="&lt;relative-position&gt;" style="stroke: #A80036; stroke-width: 1.5;" width="153" x="665" y="237"/><ellipse cx="680.45" cy="253" fill="#ADD1B2" rx="11" ry="11" style="stroke: #A80036; stroke-width: 1.0;"/><path d="M683.4188,258.6406 Q682.8406,258.9375 682.2,259.0781 Q681.5594,259.2344 680.8563,259.2344 Q678.3563,259.2344 677.0281,257.5938 Q675.7156,255.9375 675.7156,252.8125 Q675.7156,249.6875 677.0281,248.0313 Q678.3563,246.375 680.8563,246.375 Q681.5594,246.375 682.2,246.5313 Q682.8563,246.6875 683.4188,246.9844 L683.4188,249.7031 Q682.7938,249.125 682.2,248.8594 Q681.6063,248.5781 680.9813,248.5781 Q679.6375,248.5781 678.95,249.6563 Q678.2625,250.7188 678.2625,252.8125 Q678.2625,254.9063 678.95,255.9844 Q679.6375,257.0469 680.9813,257.0469 Q681.6063,257.0469 682.2,256.7813 Q682.7938,256.5 683.4188,255.9219 L683.4188,258.6406 Z "/><text fill="#000000" font-family="sans-serif" font-size="12" lengthAdjust="spacingAndGlyphs" textLength="120" x="694.55" y="257.1543">&lt;relative-position&gt;</text><line style="stroke: #A80036; stroke-width: 1.5;" x1="666" x2="817" y1="269" y2="269"/><text fill="#000000" font-family="sans-serif" font-size="11" lengthAdjust="spacingAndGlyphs" textLength="141" x="671" y="283.2104">distance : &lt;single-float&gt;</text><text fill="#000000" font-family="sans-serif" font-size="11" lengthAdjust="spacingAndGlyphs" textLength="138" x="671" y="296.0151">angle : &lt;relative-angle&gt;</text><line style="stroke: #A80036; stroke-width: 1.5;" x1="666" x2="817" y1="302.6094" y2="302.6094"/><!--MD5=[a2ec2339a56fcb0237d82d18a4c42968]
class <latitude>--><rect fill="#FEFECE" filter="url(#f16z5oaxtksscu)" height="48" id="&lt;latitude&gt;" style="stroke: #A80036; stroke-width: 1.5;" width="100" x="266.5" y="492"/><ellipse cx="281.5" cy="508" fill="#ADD1B2" rx="11" ry="11" style="stroke: #A80036; stroke-width: 1.0;"/><path d="M284.4688,513.6406 Q283.8906,513.9375 283.25,514.0781 Q282.6094,514.2344 281.9063,514.2344 Q279.4063,514.2344 278.0781,512.5938 Q276.7656,510.9375 276.7656,507.8125 Q276.7656,504.6875 278.0781,503.0313 Q279.4063,501.375 281.9063,501.375 Q282.6094,501.375 283.25,501.5313 Q283.9063,501.6875 284.4688,501.9844 L284.4688,504.7031 Q283.8438,504.125 283.25,503.8594 Q282.6563,503.5781 282.0313,503.5781 Q280.6875,503.5781 280,504.6563 Q279.3125,505.7188 279.3125,507.8125 Q279.3125,509.9063 280,510.9844 Q280.6875,512.0469 282.0313,512.0469 Q282.6563,512.0469 283.25,511.7813 Q283.8438,511.5 284.4688,510.9219 L284.4688,513.6406 Z "/><text fill="#000000" font-family="sans-serif" font-size="12" lengthAdjust="spacingAndGlyphs" textLength="68" x="295.5" y="512.1543">&lt;latitude&gt;</text><line style="stroke: #A80036; stroke-width: 1.5;" x1="267.5" x2="365.5" y1="524" y2="524"/><line style="stroke: #A80036; stroke-width: 1.5;" x1="267.5" x2="365.5" y1="532" y2="532"/><!--MD5=[8e41317ead168297cef600deff51a9ac]
class <longitude>--><rect fill="#FEFECE" filter="url(#f16z5oaxtksscu)" height="48" id="&lt;longitude&gt;" style="stroke: #A80036; stroke-width: 1.5;" width="111" x="402" y="492"/><ellipse cx="417" cy="508" fill="#ADD1B2" rx="11" ry="11" style="stroke: #A80036; stroke-width: 1.0;"/><path d="M419.9688,513.6406 Q419.3906,513.9375 418.75,514.0781 Q418.1094,514.2344 417.4063,514.2344 Q414.9063,514.2344 413.5781,512.5938 Q412.2656,510.9375 412.2656,507.8125 Q412.2656,504.6875 413.5781,503.0313 Q414.9063,501.375 417.4063,501.375 Q418.1094,501.375 418.75,501.5313 Q419.4063,501.6875 419.9688,501.9844 L419.9688,504.7031 Q419.3438,504.125 418.75,503.8594 Q418.1563,503.5781 417.5313,503.5781 Q416.1875,503.5781 415.5,504.6563 Q414.8125,505.7188 414.8125,507.8125 Q414.8125,509.9063 415.5,510.9844 Q416.1875,512.0469 417.5313,512.0469 Q418.1563,512.0469 418.75,511.7813 Q419.3438,511.5 419.9688,510.9219 L419.9688,513.6406 Z "/><text fill="#000000" font-family="sans-serif" font-size="12" lengthAdjust="spacingAndGlyphs" textLength="79" x="431" y="512.1543">&lt;longitude&gt;</text><line style="stroke: #A80036; stroke-width: 1.5;" x1="403" x2="512" y1="524" y2="524"/><line style="stroke: #A80036; stroke-width: 1.5;" x1="403" x2="512" y1="532" y2="532"/><!--MD5=[b00b36c97820417d0cfbc14c47499844]
reverse link <object> to <sixty-unit>--><path d="M438.84,72.32 C428.47,86.55 416.94,102.37 407.26,115.65 " fill="none" id="&lt;object&gt;&lt;-&lt;sixty-unit&gt;" style="stroke: #A80036; stroke-width: 1.0;"/><polygon fill="none" points="433.27,68.08,450.71,56.04,444.58,76.32,433.27,68.08" style="stroke: #A80036; stroke-width: 1.0;"/><!--MD5=[e780fa8b6a3ae6e4ea50da6f495e0b80]
reverse link <object> to <position>--><path d="M496.38,72.15 C508.78,88.95 522.84,108.02 533.53,122.49 " fill="none" id="&lt;object&gt;&lt;-&lt;position&gt;" style="stroke: #A80036; stroke-width: 1.0;"/><polygon fill="none" points="490.74,76.29,484.5,56.04,502,67.98,490.74,76.29" style="stroke: #A80036; stroke-width: 1.0;"/><!--MD5=[399842939418d7da6d644a691b8e7fe5]
reverse link <sixty-unit> to <time>--><path d="M330.48,189.6 C304.16,209.74 273.66,233.08 251.63,249.94 " fill="none" id="&lt;sixty-unit&gt;&lt;-&lt;time&gt;" style="stroke: #A80036; stroke-width: 1.0;"/><polygon fill="none" points="326.5,183.84,346.63,177.24,335.01,194.96,326.5,183.84" style="stroke: #A80036; stroke-width: 1.0;"/><!--MD5=[70c01d2250c9d6c78bcfc4da0cdb211d]
reverse link <sixty-unit> to <angle>--><path d="M386.3,197.4 C386.58,215.48 386.9,235.04 387.13,249.74 " fill="none" id="&lt;sixty-unit&gt;&lt;-&lt;angle&gt;" style="stroke: #A80036; stroke-width: 1.0;"/><polygon fill="none" points="379.29,197.35,385.97,177.24,393.29,197.13,379.29,197.35" style="stroke: #A80036; stroke-width: 1.0;"/><!--MD5=[f18f0798250013e74898edcefb79dc20]
reverse link <time> to <time-of-day>--><path d="M177.19,310.88 C150.77,332.27 118.01,358.79 95.01,377.42 " fill="none" id="&lt;time&gt;&lt;-&lt;time-of-day&gt;" style="stroke: #A80036; stroke-width: 1.0;"/><polygon fill="none" points="173.12,305.16,193.07,298.02,181.93,316.04,173.12,305.16" style="stroke: #A80036; stroke-width: 1.0;"/><!--MD5=[0e1e1f8981633b49d9a41f4dc9d6aca1]
reverse link <time> to <time-offset>--><path d="M221.5,318.29 C221.5,338.06 221.5,360.7 221.5,377.2 " fill="none" id="&lt;time&gt;&lt;-&lt;time-offset&gt;" style="stroke: #A80036; stroke-width: 1.0;"/><polygon fill="none" points="214.5,318.02,221.5,298.02,228.5,318.02,214.5,318.02" style="stroke: #A80036; stroke-width: 1.0;"/><!--MD5=[d9800c8a1ca9025b2bc4fb173957c2bd]
reverse link <angle> to <directed-angle>--><path d="M387.5,318.09 C387.5,335.53 387.5,355.22 387.5,370.98 " fill="none" id="&lt;angle&gt;&lt;-&lt;directed-angle&gt;" style="stroke: #A80036; stroke-width: 1.0;"/><polygon fill="none" points="380.5,318.02,387.5,298.02,394.5,318.02,380.5,318.02" style="stroke: #A80036; stroke-width: 1.0;"/><!--MD5=[82567a5598e26b15736d975e7f008fbf]
reverse link <angle> to <relative-angle>--><path d="M436.26,309.97 C466.3,331.51 503.97,358.53 530.31,377.42 " fill="none" id="&lt;angle&gt;&lt;-&lt;relative-angle&gt;" style="stroke: #A80036; stroke-width: 1.0;"/><polygon fill="none" points="431.77,315.36,419.6,298.02,439.93,303.99,431.77,315.36" style="stroke: #A80036; stroke-width: 1.0;"/><!--MD5=[844cc1401127a5f2e93e939632be18f5]
reverse link <directed-angle> to <latitude>--><path d="M358.03,449.2 C348.79,463.84 338.98,479.37 331.22,491.67 " fill="none" id="&lt;directed-angle&gt;&lt;-&lt;latitude&gt;" style="stroke: #A80036; stroke-width: 1.0;"/><polygon fill="none" points="352.25,445.24,368.85,432.06,364.09,452.71,352.25,445.24" style="stroke: #A80036; stroke-width: 1.0;"/><!--MD5=[2a36fd28e449433d2d2c91aad2ac9b09]
reverse link <directed-angle> to <longitude>--><path d="M416.56,449.2 C425.67,463.84 435.33,479.37 442.98,491.67 " fill="none" id="&lt;directed-angle&gt;&lt;-&lt;longitude&gt;" style="stroke: #A80036; stroke-width: 1.0;"/><polygon fill="none" points="410.51,452.74,405.89,432.06,422.4,445.34,410.51,452.74" style="stroke: #A80036; stroke-width: 1.0;"/><!--MD5=[52ff8a37a6e1768e0ae50641bad5f849]
reverse link <position> to <absolute-position>--><path d="M550.16,190.59 C550.04,205.65 549.9,222.39 549.79,236.82 " fill="none" id="&lt;position&gt;&lt;-&lt;absolute-position&gt;" style="stroke: #A80036; stroke-width: 1.0;"/><polygon fill="none" points="543.16,190.46,550.32,170.52,557.16,190.57,543.16,190.46" style="stroke: #A80036; stroke-width: 1.0;"/><!--MD5=[af9d58a4b07a1c458ca7b9bc8a66e995]
reverse link <position> to <relative-position>--><path d="M602.54,181.69 C628.55,198.78 660.02,219.46 686.44,236.82 " fill="none" id="&lt;position&gt;&lt;-&lt;relative-position&gt;" style="stroke: #A80036; stroke-width: 1.0;"/><polygon fill="none" points="598.4,187.35,585.53,170.52,606.09,175.65,598.4,187.35" style="stroke: #A80036; stroke-width: 1.0;"/><!--MD5=[60d436aa1b975c18e2297d4940b50ab6]
@startuml

class "<object>"
abstract "<sixty-unit>"
abstract "<time>"
abstract "<angle>"
class "<time-of-day>"
class "<time-offset>"
abstract "<directed-angle>"
class "<relative-angle>"
abstract "<position>"
class "<absolute-position>"
class "<relative-position>"
class "<latitude>"
class "<longitude>"

"<object>" <|- - "<sixty-unit>"
"<object>" <|- - "<position>"
"<sixty-unit>" <|- - "<time>"
"<sixty-unit>" <|- - "<angle>"
"<time>" <|- - "<time-of-day>"
"<time>" <|- - "<time-offset>"
"<angle>" <|- - "<directed-angle>"
"<angle>" <|- - "<relative-angle>"
"<directed-angle>" <|- - "<latitude>"
"<directed-angle>" <|- - "<longitude>" 
"<position>" <|- - "<absolute-position>"
"<position>" <|- - "<relative-position>" 

"<sixty-unit>" : total-seconds : <integer>
"<directed-angle>" : direction : <symbol>
"<absolute-position>" : latitude : <latitude>
"<absolute-position>" : longitude : <longitude>
"<relative-position>" : distance : <single-float>
"<relative-position>" : angle : <relative-angle>

@enduml

PlantUML version 1.2020.02(Sun Mar 01 11:22:07 CET 2020)
(GPL source distribution)
Java Runtime: OpenJDK Runtime Environment
JVM: OpenJDK 64-Bit Server VM
Java Version: 18-ea+15-Ubuntu-4
Operating System: Linux
Default Encoding: UTF-8
Language: es
Country: ES
--></g></svg>