<?xml version="1.0" encoding="UTF-8" standalone="no"?><svg xmlns="http://www.w3.org/2000/svg" xmlns:xlink="http://www.w3.org/1999/xlink" contentScriptType="application/ecmascript" contentStyleType="text/css" height="100px" preserveAspectRatio="none" style="width:453px;height:100px;background:#FFFFFF;" version="1.1" viewBox="0 0 453 100" width="453px" zoomAndPan="magnify"><defs><filter height="300%" id="f1jvjhlz2oqg7x" width="300%" x="-1" y="-1"><feGaussianBlur result="blurOut" stdDeviation="2.0"/><feColorMatrix in="blurOut" result="blurOut2" type="matrix" values="0 0 0 0 0 0 0 0 0 0 0 0 0 0 0 0 0 0 .4 0"/><feOffset dx="4.0" dy="4.0" in="blurOut2" result="blurOut3"/><feBlend in="SourceGraphic" in2="blurOut3" mode="normal"/></filter></defs><g><!--MD5=[3dab47d3fc3e186ff10f67819eb99ff8]
cluster time--><polygon fill="#FFFFFF" filter="url(#f1jvjhlz2oqg7x)" points="16,6,52,6,59,28.4063,436,28.4063,436,93,16,93,16,6" style="stroke:#000000;stroke-width:1.5;"/><line style="stroke:#000000;stroke-width:1.5;" x1="16" x2="59" y1="28.4063" y2="28.4063"/><text fill="#000000" font-family="sans-serif" font-size="14" font-weight="bold" lengthAdjust="spacing" textLength="30" x="20" y="20.9883">time</text><!--MD5=[483099d02c769940bf57efc4ab0e2402]
entity classes--><polygon fill="#FEFECE" filter="url(#f1jvjhlz2oqg7x)" points="163,41,163,77.4063,271,77.4063,271,51,261,41,163,41" style="stroke:#000000;stroke-width:1.5;"/><path d="M261,41 L261,51 L271,51 " fill="#FEFECE" style="stroke:#000000;stroke-width:1.5;"/><text fill="#000000" font-family="sans-serif" font-size="14" lengthAdjust="spacing" textLength="88" x="173" y="63.9883">classes.dylan</text><!--MD5=[5f45c85834fcf117d4b10d7627790616]
entity features--><polygon fill="#FEFECE" filter="url(#f1jvjhlz2oqg7x)" points="306,41,306,77.4063,420,77.4063,420,51,410,41,306,41" style="stroke:#000000;stroke-width:1.5;"/><path d="M410,41 L410,51 L420,51 " fill="#FEFECE" style="stroke:#000000;stroke-width:1.5;"/><text fill="#000000" font-family="sans-serif" font-size="14" lengthAdjust="spacing" textLength="94" x="316" y="63.9883">features.dylan</text><!--MD5=[84c5931ec7dcc7d7d857183c0e543807]
entity library--><polygon fill="#FEFECE" filter="url(#f1jvjhlz2oqg7x)" points="32,41,32,77.4063,128,77.4063,128,51,118,41,32,41" style="stroke:#000000;stroke-width:1.5;"/><path d="M118,41 L118,51 L128,51 " fill="#FEFECE" style="stroke:#000000;stroke-width:1.5;"/><text fill="#000000" font-family="sans-serif" font-size="14" lengthAdjust="spacing" textLength="76" x="42" y="63.9883">library.dylan</text><!--MD5=[24c866b7a7f543c35abbec6023e9298c]
reverse link library to classes--><path d="M133.32,59 C143.17,59 153.02,59 162.87,59 " fill="none" id="library-backto-classes" style="stroke:#A80036;stroke-width:1.0;"/><polygon fill="#A80036" points="128.16,59,137.16,63,133.16,59,137.16,55,128.16,59" style="stroke:#A80036;stroke-width:1.0;"/><!--MD5=[85134a2c993701d4f72f1fcefa59802d]
reverse link classes to features--><path d="M276.34,59 C286.22,59 296.1,59 305.97,59 " fill="none" id="classes-backto-features" style="stroke:#A80036;stroke-width:1.0;"/><polygon fill="#A80036" points="271.18,59,280.18,63,276.18,59,280.18,55,271.18,59" style="stroke:#A80036;stroke-width:1.0;"/><!--MD5=[ceec6984422239b4d29163a79760e06b]
@startuml

folder "time" {
  file "classes.dylan" as classes
  file "features.dylan" as features
  file "library.dylan" as library
}

library <- classes
classes <- features

@enduml

PlantUML version 1.2022.0(Tue Jan 11 17:16:42 CET 2022)
(LGPL source distribution)
Java Runtime: OpenJDK Runtime Environment
JVM: OpenJDK 64-Bit Server VM
Default Encoding: UTF-8
Language: es
Country: ES
--></g></svg>